<?xml version="1.0" standalone="no"?>
<!DOCTYPE svg PUBLIC "-//W3C//DTD SVG 20010904//EN"
 "http://www.w3.org/TR/2001/REC-SVG-20010904/DTD/svg10.dtd">
<svg version="1.0" xmlns="http://www.w3.org/2000/svg"
 width="372.000000pt" height="380.000000pt" viewBox="0 0 372.000000 380.000000"
 preserveAspectRatio="xMidYMid meet">

<g transform="translate(0.000000,380.000000) scale(0.100000,-0.100000)"
fill="#000000" stroke="none">
<path d="M1855 3630 c-10 -16 3 -29 26 -27 11 1 25 11 30 22 9 19 9 19 -4 2
-13 -15 -15 -16 -21 -2 -6 17 -22 20 -31 5z m25 -10 c0 -5 -4 -10 -10 -10 -5
0 -10 5 -10 10 0 6 5 10 10 10 6 0 10 -4 10 -10z"/>
<path d="M2004 3625 c-4 -9 -20 -16 -43 -16 -23 -1 -28 -3 -13 -6 27 -5 30
-23 3 -23 -15 0 -18 -5 -13 -22 5 -19 7 -20 10 -5 2 9 8 17 13 17 5 0 9 -8 10
-17 0 -15 2 -15 8 2 5 11 6 26 4 33 -5 13 -4 13 39 16 14 0 30 5 35 10 4 5 3
6 -3 3 -7 -4 -14 0 -18 8 -7 19 -25 19 -32 0z m26 -5 c0 -5 -4 -10 -10 -10 -5
0 -10 5 -10 10 0 6 5 10 10 10 6 0 10 -4 10 -10z"/>
<path d="M1559 3620 c-1 -8 -1 -19 0 -24 1 -5 -4 -13 -11 -17 -9 -6 -6 -9 10
-9 14 0 22 -6 23 -17 0 -14 2 -15 6 -3 3 8 11 18 17 22 6 5 1 8 -11 8 -13 0
-23 5 -23 10 0 6 9 10 20 10 14 0 18 5 13 16 -5 13 -7 13 -14 2 -7 -11 -11
-10 -19 2 -9 13 -10 13 -11 0z"/>
<path d="M1820 3623 c0 -7 -8 -13 -18 -13 -13 0 -18 -7 -17 -22 1 -18 7 -22
26 -20 32 5 38 12 11 12 -12 0 -22 5 -22 11 0 6 7 9 15 6 19 -8 26 5 14 23 -6
10 -9 11 -9 3z"/>
<path d="M2099 3620 c-1 -8 -1 -19 0 -24 1 -5 -4 -13 -11 -17 -9 -6 -7 -9 9
-9 12 0 24 -8 26 -17 4 -17 5 -17 6 0 0 9 7 17 14 17 8 0 7 3 -3 9 -8 6 -18 7
-22 5 -4 -3 -8 0 -8 5 0 6 9 11 20 11 14 0 18 5 13 16 -5 13 -7 13 -14 2 -7
-11 -11 -10 -19 2 -9 13 -10 13 -11 0z"/>
<path d="M1638 3603 c27 -5 30 -23 3 -23 -15 0 -18 -5 -13 -22 5 -19 7 -20 10
-5 2 9 8 17 13 17 5 0 9 -8 10 -17 0 -15 2 -15 8 2 5 11 6 24 3 29 -2 4 2 12
9 17 9 6 0 8 -26 7 -23 0 -30 -3 -17 -5z"/>
<path d="M1718 3603 c27 -5 30 -23 3 -23 -15 0 -18 -5 -13 -22 5 -19 7 -20 10
-5 2 10 11 16 20 15 10 -2 16 3 14 11 -2 8 3 18 10 22 8 5 -2 8 -27 7 -23 0
-30 -3 -17 -5z"/>
<path d="M2178 3603 c27 -5 30 -23 3 -23 -15 0 -18 -5 -13 -22 5 -19 7 -20 10
-5 2 9 8 17 13 17 5 0 9 -8 10 -17 0 -15 2 -15 8 2 5 11 6 24 3 29 -2 4 2 12
9 17 9 6 0 8 -26 7 -23 0 -30 -3 -17 -5z"/>
<path d="M1873 3578 c-3 -7 -1 -8 5 -4 8 5 12 0 12 -13 0 -12 7 -21 15 -21 22
0 18 37 -5 43 -11 3 -23 0 -27 -5z"/>
<path d="M2015 3561 l-16 -26 20 24 c21 23 21 23 21 2 0 -12 6 -21 15 -21 8 0
15 5 15 11 0 5 -4 7 -10 4 -5 -3 -10 -2 -10 4 0 5 6 11 12 13 7 3 3 7 -9 10
-17 4 -26 -1 -38 -21z"/>
<path d="M2700 3421 c0 -31 37 -33 55 -2 l16 26 -20 -24 c-21 -23 -21 -23 -21
-2 0 12 -6 21 -15 21 -8 0 -15 -8 -15 -19z"/>
<path d="M1050 3423 c0 -7 -8 -13 -18 -13 -13 0 -18 -7 -17 -22 1 -18 7 -22
26 -20 32 5 38 12 11 12 -12 0 -22 5 -22 11 0 6 7 9 15 6 19 -8 26 5 14 23 -6
10 -9 11 -9 3z"/>
<path d="M1099 3420 c-1 -8 -1 -19 0 -24 1 -5 -4 -13 -11 -17 -9 -6 -6 -9 10
-9 14 0 22 -6 23 -17 0 -14 2 -15 6 -3 3 8 11 18 17 22 6 5 1 8 -11 8 -13 0
-23 5 -23 10 0 6 9 10 20 10 14 0 18 5 13 16 -5 13 -7 13 -14 2 -7 -11 -11
-10 -19 2 -9 13 -10 13 -11 0z"/>
<path d="M1280 3423 c0 -7 -8 -13 -18 -13 -13 0 -18 -7 -17 -22 1 -18 7 -22
26 -20 32 5 38 12 11 12 -12 0 -22 5 -22 11 0 6 7 9 15 6 19 -8 26 5 14 23 -6
10 -9 11 -9 3z"/>
<path d="M1329 3420 c-1 -8 -1 -19 0 -24 1 -5 -4 -13 -11 -17 -9 -6 -6 -9 10
-9 14 0 22 -6 23 -17 0 -14 2 -15 6 -3 3 8 11 18 17 22 6 5 1 8 -11 8 -13 0
-23 5 -23 10 0 6 9 10 20 10 14 0 18 5 13 16 -5 13 -7 13 -14 2 -7 -11 -11
-10 -19 2 -9 13 -10 13 -11 0z"/>
<path d="M1559 3420 c-1 -8 -1 -19 0 -24 1 -5 -4 -13 -11 -17 -9 -6 -6 -9 10
-9 14 0 22 -6 23 -17 0 -14 2 -15 6 -3 3 8 11 18 17 22 6 5 1 8 -11 8 -13 0
-23 5 -23 10 0 6 9 10 20 10 14 0 18 5 13 16 -5 13 -7 13 -14 2 -7 -11 -11
-10 -19 2 -9 13 -10 13 -11 0z"/>
<path d="M2050 3423 c0 -7 -8 -13 -18 -13 -13 0 -18 -7 -17 -22 1 -18 7 -22
26 -20 32 5 38 12 11 12 -12 0 -22 5 -22 11 0 6 7 9 15 6 19 -8 26 5 14 23 -6
10 -9 11 -9 3z"/>
<path d="M2099 3420 c-1 -8 -1 -19 0 -24 1 -5 -4 -13 -11 -17 -9 -6 -7 -9 9
-9 12 0 24 -8 26 -17 4 -17 5 -17 6 0 0 9 7 17 14 17 8 0 7 3 -3 9 -8 6 -18 7
-22 5 -4 -3 -8 0 -8 5 0 6 9 11 20 11 14 0 18 5 13 16 -5 13 -7 13 -14 2 -7
-11 -11 -10 -19 2 -9 13 -10 13 -11 0z"/>
<path d="M2280 3420 c0 -5 -8 -10 -19 -10 -15 0 -18 -6 -15 -32 4 -34 14 -52
14 -24 0 11 7 16 18 14 10 -2 16 2 14 11 -2 8 1 17 6 20 6 3 4 12 -4 19 -8 7
-14 8 -14 2z m0 -30 c0 -5 -4 -10 -10 -10 -5 0 -10 5 -10 10 0 6 5 10 10 10 6
0 10 -4 10 -10z"/>
<path d="M2360 3423 c0 -7 -9 -13 -20 -13 -13 0 -18 -5 -14 -15 4 -9 0 -15 -7
-15 -11 0 -11 -2 1 -9 8 -6 18 -7 22 -5 4 3 8 -3 9 -13 0 -14 2 -15 6 -3 3 8
11 18 17 22 6 5 1 8 -11 8 -13 0 -23 5 -23 11 0 6 7 9 15 6 19 -8 26 5 14 23
-6 10 -9 11 -9 3z"/>
<path d="M2510 3420 c0 -5 -8 -10 -19 -10 -15 0 -18 -6 -15 -32 4 -34 14 -52
14 -24 0 11 7 16 18 14 10 -2 16 2 14 11 -2 8 1 17 6 20 6 3 4 12 -4 19 -8 7
-14 8 -14 2z m0 -30 c0 -5 -4 -10 -10 -10 -5 0 -10 5 -10 10 0 6 5 10 10 10 6
0 10 -4 10 -10z"/>
<path d="M2590 3423 c0 -7 -9 -13 -20 -13 -13 0 -18 -5 -14 -15 4 -9 0 -15 -7
-15 -11 0 -11 -2 1 -9 8 -6 18 -7 22 -5 4 3 8 -3 9 -13 0 -14 2 -15 6 -3 3 8
11 18 17 22 6 5 1 8 -11 8 -13 0 -23 5 -23 11 0 6 7 9 15 6 19 -8 26 5 14 23
-6 10 -9 11 -9 3z"/>
<path d="M2639 3420 c-1 -8 -1 -19 0 -24 1 -5 -4 -13 -11 -17 -9 -6 -6 -9 10
-9 14 0 22 -6 23 -17 0 -14 2 -15 6 -3 3 8 11 18 17 22 6 5 1 8 -11 8 -13 0
-23 5 -23 10 0 6 9 10 20 10 14 0 18 5 13 16 -5 13 -7 13 -14 2 -7 -11 -11
-10 -19 2 -9 13 -10 13 -11 0z"/>
<path d="M1178 3403 c27 -5 30 -23 3 -23 -15 0 -18 -5 -13 -22 5 -19 7 -20 10
-5 2 10 11 16 20 15 10 -2 16 3 14 11 -2 8 3 18 10 22 8 5 -2 8 -27 7 -23 0
-30 -3 -17 -5z"/>
<path d="M1408 3403 c27 -5 30 -23 3 -23 -15 0 -18 -5 -13 -22 5 -19 7 -20 10
-5 2 9 8 17 13 17 5 0 9 -8 10 -17 0 -15 2 -15 8 2 5 11 6 24 3 29 -2 4 2 12
9 17 9 6 0 8 -26 7 -23 0 -30 -3 -17 -5z"/>
<path d="M1488 3403 c27 -5 30 -23 3 -23 -15 0 -18 -5 -13 -22 5 -19 7 -20 10
-5 2 10 11 16 20 15 10 -2 16 3 14 11 -2 8 3 18 10 22 8 5 -2 8 -27 7 -23 0
-30 -3 -17 -5z"/>
<path d="M1638 3403 c27 -5 30 -23 3 -23 -15 0 -18 -5 -13 -22 5 -19 7 -20 10
-5 2 9 8 17 13 17 5 0 9 -8 10 -17 0 -15 2 -15 8 2 5 11 6 24 3 29 -2 4 2 12
9 17 9 6 0 8 -26 7 -23 0 -30 -3 -17 -5z"/>
<path d="M1718 3403 c27 -5 30 -23 3 -23 -15 0 -18 -5 -13 -22 5 -19 7 -20 10
-5 2 10 11 16 20 15 10 -2 16 3 14 11 -2 8 3 18 10 22 8 5 -2 8 -27 7 -23 0
-30 -3 -17 -5z"/>
<path d="M1948 3403 c27 -5 30 -23 3 -23 -15 0 -18 -5 -13 -22 5 -19 7 -20 10
-5 2 9 8 17 13 17 5 0 9 -8 10 -17 0 -15 2 -15 8 2 5 11 6 24 3 29 -2 4 2 12
9 17 9 6 0 8 -26 7 -23 0 -30 -3 -17 -5z"/>
<path d="M2178 3403 c27 -5 30 -23 3 -23 -15 0 -18 -5 -13 -22 5 -19 7 -20 10
-5 2 9 8 17 13 17 5 0 9 -8 10 -17 0 -15 2 -15 8 2 5 11 6 24 3 29 -2 4 2 12
9 17 9 6 0 8 -26 7 -23 0 -30 -3 -17 -5z"/>
<path d="M2408 3403 c27 -5 30 -23 3 -23 -15 0 -18 -5 -13 -22 5 -19 7 -20 10
-5 2 9 8 17 13 17 5 0 9 -8 10 -17 0 -15 2 -15 8 2 5 11 6 24 3 29 -2 4 2 12
9 17 9 6 0 8 -26 7 -23 0 -30 -3 -17 -5z"/>
<path d="M2713 3365 c-4 -5 -3 -7 2 -3 4 4 14 0 21 -10 10 -13 15 -14 24 -5 7
6 9 16 6 21 -8 13 -46 11 -53 -3z m47 -5 c0 -5 -4 -10 -10 -10 -5 0 -10 5 -10
10 0 6 5 10 10 10 6 0 10 -4 10 -10z"/>
<path d="M510 3233 c0 -7 -8 -13 -18 -13 -13 0 -18 -7 -17 -22 1 -18 7 -22 26
-20 32 5 38 12 11 12 -12 0 -22 5 -22 11 0 6 7 9 15 6 19 -8 26 5 14 23 -6 10
-9 11 -9 3z"/>
<path d="M559 3230 c-1 -8 -1 -19 0 -24 1 -5 -4 -13 -11 -17 -9 -6 -6 -9 10
-9 14 0 22 -6 23 -17 0 -14 2 -15 6 -3 3 8 11 18 17 22 6 5 1 8 -11 8 -13 0
-23 5 -23 10 0 6 9 10 20 10 14 0 18 5 13 16 -5 13 -7 13 -14 2 -7 -11 -11
-10 -19 2 -9 13 -10 13 -11 0z"/>
<path d="M789 3230 c-1 -8 -1 -19 0 -24 1 -5 -4 -13 -11 -17 -9 -6 -6 -9 10
-9 14 0 22 -6 23 -17 0 -14 2 -15 6 -3 3 8 11 18 17 22 6 5 1 8 -11 8 -13 0
-23 5 -23 10 0 6 9 10 20 10 14 0 18 5 13 16 -5 13 -7 13 -14 2 -7 -11 -11
-10 -19 2 -9 13 -10 13 -11 0z"/>
<path d="M1050 3233 c0 -7 -8 -13 -18 -13 -13 0 -18 -7 -17 -22 1 -18 7 -22
26 -20 32 5 38 12 11 12 -12 0 -22 5 -22 11 0 6 7 9 15 6 19 -8 26 5 14 23 -6
10 -9 11 -9 3z"/>
<path d="M1099 3230 c-1 -8 -1 -19 0 -24 1 -5 -4 -13 -11 -17 -9 -6 -6 -9 10
-9 14 0 22 -6 23 -17 0 -14 2 -15 6 -3 3 8 11 18 17 22 6 5 1 8 -11 8 -13 0
-23 5 -23 10 0 6 9 10 20 10 14 0 18 5 13 16 -5 13 -7 13 -14 2 -7 -11 -11
-10 -19 2 -9 13 -10 13 -11 0z"/>
<path d="M1280 3233 c0 -7 -8 -13 -18 -13 -13 0 -18 -7 -17 -22 1 -18 7 -22
26 -20 32 5 38 12 11 12 -12 0 -22 5 -22 11 0 6 7 9 15 6 19 -8 26 5 14 23 -6
10 -9 11 -9 3z"/>
<path d="M1329 3230 c-1 -8 -1 -19 0 -24 1 -5 -4 -13 -11 -17 -9 -6 -6 -9 10
-9 14 0 22 -6 23 -17 0 -14 2 -15 6 -3 3 8 11 18 17 22 6 5 1 8 -11 8 -13 0
-23 5 -23 10 0 6 9 10 20 10 14 0 18 5 13 16 -5 13 -7 13 -14 2 -7 -11 -11
-10 -19 2 -9 13 -10 13 -11 0z"/>
<path d="M1559 3230 c-1 -8 -1 -19 0 -24 1 -5 -4 -13 -11 -17 -9 -6 -6 -9 10
-9 14 0 22 -6 23 -17 0 -14 2 -15 6 -3 3 8 11 18 17 22 6 5 1 8 -11 8 -13 0
-23 5 -23 10 0 6 9 10 20 10 14 0 18 5 13 16 -5 13 -7 13 -14 2 -7 -11 -11
-10 -19 2 -9 13 -10 13 -11 0z"/>
<path d="M2050 3233 c0 -7 -8 -13 -18 -13 -13 0 -18 -7 -17 -22 1 -18 7 -22
26 -20 32 5 38 12 11 12 -12 0 -22 5 -22 11 0 6 7 9 15 6 19 -8 26 5 14 23 -6
10 -9 11 -9 3z"/>
<path d="M2099 3230 c-1 -8 -1 -19 0 -24 1 -5 -4 -13 -11 -17 -9 -6 -7 -9 9
-9 12 0 24 -8 26 -17 4 -17 5 -17 6 0 0 9 7 17 14 17 8 0 7 3 -3 9 -8 6 -18 7
-22 5 -4 -3 -8 0 -8 5 0 6 9 11 20 11 14 0 18 5 13 16 -5 13 -7 13 -14 2 -7
-11 -11 -10 -19 2 -9 13 -10 13 -11 0z"/>
<path d="M2280 3230 c0 -5 -8 -10 -19 -10 -15 0 -18 -6 -15 -32 4 -34 14 -52
14 -24 0 11 7 16 18 14 10 -2 16 2 14 11 -2 8 1 17 6 20 6 3 4 12 -4 19 -8 7
-14 8 -14 2z m0 -30 c0 -5 -4 -10 -10 -10 -5 0 -10 5 -10 10 0 6 5 10 10 10 6
0 10 -4 10 -10z"/>
<path d="M2360 3233 c0 -7 -9 -13 -20 -13 -13 0 -18 -5 -14 -15 4 -9 0 -15 -7
-15 -11 0 -11 -2 1 -9 8 -6 18 -7 22 -5 4 3 8 -3 9 -13 0 -14 2 -15 6 -3 3 8
11 18 17 22 6 5 1 8 -11 8 -13 0 -23 5 -23 11 0 6 7 9 15 6 19 -8 26 5 14 23
-6 10 -9 11 -9 3z"/>
<path d="M2510 3230 c0 -5 -8 -10 -19 -10 -15 0 -18 -6 -15 -32 4 -34 14 -52
14 -24 0 11 7 16 18 14 10 -2 16 2 14 11 -2 8 1 17 6 20 6 3 4 12 -4 19 -8 7
-14 8 -14 2z m0 -30 c0 -5 -4 -10 -10 -10 -5 0 -10 5 -10 10 0 6 5 10 10 10 6
0 10 -4 10 -10z"/>
<path d="M2590 3233 c0 -7 -9 -13 -20 -13 -13 0 -18 -5 -14 -15 4 -9 0 -15 -7
-15 -11 0 -11 -2 1 -9 8 -6 18 -7 22 -5 4 3 8 -3 9 -13 0 -14 2 -15 6 -3 3 8
11 18 17 22 6 5 1 8 -11 8 -13 0 -23 5 -23 11 0 6 7 9 15 6 19 -8 26 5 14 23
-6 10 -9 11 -9 3z"/>
<path d="M2639 3230 c-1 -8 -1 -19 0 -24 1 -5 -4 -13 -11 -17 -9 -6 -7 -9 9
-9 12 0 24 -8 26 -17 4 -17 5 -17 6 0 0 9 7 17 14 17 8 0 7 3 -3 9 -8 6 -18 7
-22 5 -4 -3 -8 0 -8 5 0 6 9 11 20 11 14 0 18 5 13 16 -5 13 -7 13 -14 2 -7
-11 -11 -10 -19 2 -9 13 -10 13 -11 0z"/>
<path d="M2820 3233 c0 -7 -9 -13 -20 -13 -13 0 -18 -5 -14 -15 4 -9 0 -15 -7
-15 -11 0 -11 -2 1 -9 8 -6 18 -7 22 -5 4 3 8 -3 9 -13 0 -14 2 -15 6 -3 3 8
11 18 17 22 6 5 1 8 -11 8 -13 0 -23 5 -23 11 0 6 7 9 15 6 19 -8 26 5 14 23
-6 10 -9 11 -9 3z"/>
<path d="M2869 3230 c-1 -8 -1 -19 0 -24 1 -5 -4 -13 -11 -17 -9 -6 -7 -9 9
-9 12 0 24 -8 26 -17 4 -17 5 -17 6 0 0 9 7 17 14 17 8 0 7 3 -3 9 -8 6 -18 7
-22 5 -4 -3 -8 0 -8 5 0 6 9 11 20 11 14 0 18 5 13 16 -5 13 -7 13 -14 2 -7
-11 -11 -10 -19 2 -9 13 -10 13 -11 0z"/>
<path d="M3050 3230 c0 -5 -8 -10 -19 -10 -15 0 -18 -6 -15 -32 4 -34 14 -52
14 -24 0 11 7 16 18 14 10 -2 16 2 14 11 -2 8 1 17 6 20 6 3 4 12 -4 19 -8 7
-14 8 -14 2z m0 -30 c0 -5 -4 -10 -10 -10 -5 0 -10 5 -10 10 0 6 5 10 10 10 6
0 10 -4 10 -10z"/>
<path d="M3130 3233 c0 -7 -9 -13 -20 -13 -13 0 -18 -5 -14 -15 4 -9 0 -15 -7
-15 -11 0 -11 -2 1 -9 8 -6 18 -7 22 -5 4 3 8 -3 9 -13 0 -14 2 -15 6 -3 3 8
11 18 17 22 6 5 1 8 -11 8 -13 0 -23 5 -23 11 0 6 7 9 15 6 19 -8 26 5 14 23
-6 10 -9 11 -9 3z"/>
<path d="M3179 3230 c-1 -8 -1 -19 0 -24 1 -5 -4 -13 -11 -17 -9 -6 -7 -9 9
-9 12 0 24 -8 26 -17 4 -17 5 -17 6 0 0 9 7 17 14 17 8 0 7 3 -3 9 -8 6 -18 7
-22 5 -4 -3 -8 0 -8 5 0 6 9 11 20 11 14 0 18 5 13 16 -5 13 -7 13 -14 2 -7
-11 -11 -10 -19 2 -9 13 -10 13 -11 0z"/>
<path d="M3360 3233 c0 -7 -8 -13 -18 -13 -13 0 -18 -7 -17 -22 1 -18 7 -22
26 -20 32 5 38 12 11 12 -12 0 -22 5 -22 11 0 6 7 9 15 6 19 -8 26 5 14 23 -6
10 -9 11 -9 3z"/>
<path d="M408 3213 c27 -5 30 -23 3 -23 -15 0 -18 -5 -13 -22 5 -19 7 -20 10
-5 2 10 11 16 20 15 10 -2 16 3 14 11 -2 8 3 18 10 22 8 5 -2 8 -27 7 -23 0
-30 -3 -17 -5z"/>
<path d="M638 3213 c27 -5 30 -23 3 -23 -15 0 -18 -5 -13 -22 5 -19 7 -20 10
-5 2 9 8 17 13 17 5 0 9 -8 10 -17 0 -15 2 -15 8 2 5 11 6 24 3 29 -2 4 2 12
9 17 9 6 0 8 -26 7 -23 0 -30 -3 -17 -5z"/>
<path d="M718 3213 c27 -5 30 -23 3 -23 -15 0 -18 -5 -13 -22 5 -19 7 -20 10
-5 2 10 11 16 20 15 10 -2 16 3 14 11 -2 8 3 18 10 22 8 5 -2 8 -27 7 -23 0
-30 -3 -17 -5z"/>
<path d="M868 3213 c27 -5 30 -23 3 -23 -15 0 -18 -5 -13 -22 5 -19 7 -20 10
-5 2 9 8 17 13 17 5 0 9 -8 10 -17 0 -15 2 -15 8 2 5 11 6 24 3 29 -2 4 2 12
9 17 9 6 0 8 -26 7 -23 0 -30 -3 -17 -5z"/>
<path d="M948 3213 c27 -5 30 -23 3 -23 -15 0 -18 -5 -13 -22 5 -19 7 -20 10
-5 2 10 11 16 20 15 10 -2 16 3 14 11 -2 8 3 18 10 22 8 5 -2 8 -27 7 -23 0
-30 -3 -17 -5z"/>
<path d="M1178 3213 c27 -5 30 -23 3 -23 -15 0 -18 -5 -13 -22 5 -19 7 -20 10
-5 2 10 11 16 20 15 10 -2 16 3 14 11 -2 8 3 18 10 22 8 5 -2 8 -27 7 -23 0
-30 -3 -17 -5z"/>
<path d="M1408 3213 c27 -5 30 -23 3 -23 -15 0 -18 -5 -13 -22 5 -19 7 -20 10
-5 2 9 8 17 13 17 5 0 9 -8 10 -17 0 -15 2 -15 8 2 5 11 6 24 3 29 -2 4 2 12
9 17 9 6 0 8 -26 7 -23 0 -30 -3 -17 -5z"/>
<path d="M1488 3213 c27 -5 30 -23 3 -23 -15 0 -18 -5 -13 -22 5 -19 7 -20 10
-5 2 10 11 16 20 15 10 -2 16 3 14 11 -2 8 3 18 10 22 8 5 -2 8 -27 7 -23 0
-30 -3 -17 -5z"/>
<path d="M1638 3213 c27 -5 30 -23 3 -23 -15 0 -18 -5 -13 -22 5 -19 7 -20 10
-5 2 9 8 17 13 17 5 0 9 -8 10 -17 0 -15 2 -15 8 2 5 11 6 24 3 29 -2 4 2 12
9 17 9 6 0 8 -26 7 -23 0 -30 -3 -17 -5z"/>
<path d="M2178 3213 c27 -5 30 -23 3 -23 -15 0 -18 -5 -13 -22 5 -19 7 -20 10
-5 2 9 8 17 13 17 5 0 9 -8 10 -17 0 -15 2 -15 8 2 5 11 6 24 3 29 -2 4 2 12
9 17 9 6 0 8 -26 7 -23 0 -30 -3 -17 -5z"/>
<path d="M2408 3213 c27 -5 30 -23 3 -23 -15 0 -18 -5 -13 -22 5 -19 7 -20 10
-5 2 9 8 17 13 17 5 0 9 -8 10 -17 0 -15 2 -15 8 2 5 11 6 24 3 29 -2 4 2 12
9 17 9 6 0 8 -26 7 -23 0 -30 -3 -17 -5z"/>
<path d="M2718 3213 c27 -5 30 -23 3 -23 -15 0 -18 -5 -13 -22 5 -19 7 -20 10
-5 2 9 8 17 13 17 5 0 9 -8 10 -17 0 -15 2 -15 8 2 5 11 6 24 3 29 -2 4 2 12
9 17 9 6 0 8 -26 7 -23 0 -30 -3 -17 -5z"/>
<path d="M2948 3213 c27 -5 30 -23 3 -23 -15 0 -18 -5 -13 -22 5 -19 7 -20 10
-5 2 9 8 17 13 17 5 0 9 -8 10 -17 0 -15 2 -15 8 2 5 11 6 24 3 29 -2 4 2 12
9 17 9 6 0 8 -26 7 -23 0 -30 -3 -17 -5z"/>
<path d="M3258 3213 c27 -5 30 -23 3 -23 -15 0 -18 -5 -13 -22 5 -19 7 -20 10
-5 2 10 11 16 20 15 10 -2 16 3 14 11 -2 8 3 18 10 22 8 5 -2 8 -27 7 -23 0
-30 -3 -17 -5z"/>
<path d="M280 3033 c0 -7 -8 -13 -18 -13 -13 0 -18 -7 -17 -22 1 -18 7 -22 26
-20 32 5 38 12 11 12 -12 0 -22 5 -22 11 0 6 7 9 15 6 19 -8 26 5 14 23 -6 10
-9 11 -9 3z"/>
<path d="M510 3033 c0 -7 -8 -13 -18 -13 -13 0 -18 -7 -17 -22 1 -18 7 -22 26
-20 32 5 38 12 11 12 -12 0 -22 5 -22 11 0 6 7 9 15 6 19 -8 26 5 14 23 -6 10
-9 11 -9 3z"/>
<path d="M559 3030 c-1 -8 -1 -19 0 -24 1 -5 -4 -13 -11 -17 -9 -6 -6 -9 10
-9 14 0 22 -6 23 -17 0 -14 2 -15 6 -3 3 8 11 18 17 22 6 5 1 8 -11 8 -13 0
-23 5 -23 10 0 6 9 10 20 10 14 0 18 5 13 16 -5 13 -7 13 -14 2 -7 -11 -11
-10 -19 2 -9 13 -10 13 -11 0z"/>
<path d="M789 3030 c-1 -8 -1 -19 0 -24 1 -5 -4 -13 -11 -17 -9 -6 -6 -9 10
-9 14 0 22 -6 23 -17 0 -14 2 -15 6 -3 3 8 11 18 17 22 6 5 1 8 -11 8 -13 0
-23 5 -23 10 0 6 9 10 20 10 14 0 18 5 13 16 -5 13 -7 13 -14 2 -7 -11 -11
-10 -19 2 -9 13 -10 13 -11 0z"/>
<path d="M1050 3033 c0 -7 -8 -13 -18 -13 -13 0 -18 -7 -17 -22 1 -18 7 -22
26 -20 32 5 38 12 11 12 -12 0 -22 5 -22 11 0 6 7 9 15 6 19 -8 26 5 14 23 -6
10 -9 11 -9 3z"/>
<path d="M1099 3030 c-1 -8 -1 -19 0 -24 1 -5 -4 -13 -11 -17 -9 -6 -6 -9 10
-9 14 0 22 -6 23 -17 0 -14 2 -15 6 -3 3 8 11 18 17 22 6 5 1 8 -11 8 -13 0
-23 5 -23 10 0 6 9 10 20 10 14 0 18 5 13 16 -5 13 -7 13 -14 2 -7 -11 -11
-10 -19 2 -9 13 -10 13 -11 0z"/>
<path d="M1280 3033 c0 -7 -8 -13 -18 -13 -13 0 -18 -7 -17 -22 1 -18 7 -22
26 -20 32 5 38 12 11 12 -12 0 -22 5 -22 11 0 6 7 9 15 6 19 -8 26 5 14 23 -6
10 -9 11 -9 3z"/>
<path d="M1329 3030 c-1 -8 -1 -19 0 -24 1 -5 -4 -13 -11 -17 -9 -6 -6 -9 10
-9 14 0 22 -6 23 -17 0 -14 2 -15 6 -3 3 8 11 18 17 22 6 5 1 8 -11 8 -13 0
-23 5 -23 10 0 6 9 10 20 10 14 0 18 5 13 16 -5 13 -7 13 -14 2 -7 -11 -11
-10 -19 2 -9 13 -10 13 -11 0z"/>
<path d="M1559 3030 c-1 -8 -1 -19 0 -24 1 -5 -4 -13 -11 -17 -9 -6 -6 -9 10
-9 14 0 22 -6 23 -17 0 -14 2 -15 6 -3 3 8 11 18 17 22 6 5 1 8 -11 8 -13 0
-23 5 -23 10 0 6 9 10 20 10 14 0 18 5 13 16 -5 13 -7 13 -14 2 -7 -11 -11
-10 -19 2 -9 13 -10 13 -11 0z"/>
<path d="M2280 3030 c0 -5 -8 -10 -19 -10 -15 0 -18 -6 -15 -32 4 -34 14 -52
14 -24 0 11 7 16 18 14 10 -2 16 2 14 11 -2 8 1 17 6 20 6 3 4 12 -4 19 -8 7
-14 8 -14 2z m0 -30 c0 -5 -4 -10 -10 -10 -5 0 -10 5 -10 10 0 6 5 10 10 10 6
0 10 -4 10 -10z"/>
<path d="M2360 3033 c0 -7 -9 -13 -20 -13 -13 0 -18 -5 -14 -15 4 -9 0 -15 -7
-15 -11 0 -11 -2 1 -9 8 -6 18 -7 22 -5 4 3 8 -3 9 -13 0 -14 2 -15 6 -3 3 8
11 18 17 22 6 5 1 8 -11 8 -13 0 -23 5 -23 11 0 6 7 9 15 6 19 -8 26 5 14 23
-6 10 -9 11 -9 3z"/>
<path d="M2510 3030 c0 -5 -8 -10 -19 -10 -15 0 -18 -6 -15 -32 4 -34 14 -52
14 -24 0 11 7 16 18 14 10 -2 16 2 14 11 -2 8 1 17 6 20 6 3 4 12 -4 19 -8 7
-14 8 -14 2z m0 -30 c0 -5 -4 -10 -10 -10 -5 0 -10 5 -10 10 0 6 5 10 10 10 6
0 10 -4 10 -10z"/>
<path d="M2590 3033 c0 -7 -9 -13 -20 -13 -13 0 -18 -5 -14 -15 4 -9 0 -15 -7
-15 -11 0 -11 -2 1 -9 8 -6 18 -7 22 -5 4 3 8 -3 9 -13 0 -14 2 -15 6 -3 3 8
11 18 17 22 6 5 1 8 -11 8 -13 0 -23 5 -23 11 0 6 7 9 15 6 19 -8 26 5 14 23
-6 10 -9 11 -9 3z"/>
<path d="M2639 3030 c-1 -8 -1 -19 0 -24 1 -5 -4 -13 -11 -17 -9 -6 -7 -9 9
-9 12 0 24 -8 26 -17 4 -17 5 -17 6 0 0 9 7 17 14 17 8 0 7 3 -3 9 -8 6 -18 7
-22 5 -4 -3 -8 0 -8 5 0 6 9 11 20 11 14 0 18 5 13 16 -5 13 -7 13 -14 2 -7
-11 -11 -10 -19 2 -9 13 -10 13 -11 0z"/>
<path d="M2820 3033 c0 -7 -9 -13 -20 -13 -13 0 -18 -5 -14 -15 4 -9 0 -15 -7
-15 -11 0 -11 -2 1 -9 8 -6 18 -7 22 -5 4 3 8 -3 9 -13 0 -14 2 -15 6 -3 3 8
11 18 17 22 6 5 1 8 -11 8 -13 0 -23 5 -23 11 0 6 7 9 15 6 19 -8 26 5 14 23
-6 10 -9 11 -9 3z"/>
<path d="M2869 3030 c-1 -8 -1 -19 0 -24 1 -5 -4 -13 -11 -17 -9 -6 -7 -9 9
-9 12 0 24 -8 26 -17 4 -17 5 -17 6 0 0 9 7 17 14 17 8 0 7 3 -3 9 -8 6 -18 7
-22 5 -4 -3 -8 0 -8 5 0 6 9 11 20 11 14 0 18 5 13 16 -5 13 -7 13 -14 2 -7
-11 -11 -10 -19 2 -9 13 -10 13 -11 0z"/>
<path d="M3050 3030 c0 -5 -8 -10 -19 -10 -15 0 -18 -6 -15 -32 4 -34 14 -52
14 -24 0 11 7 16 18 14 10 -2 16 2 14 11 -2 8 1 17 6 20 6 3 4 12 -4 19 -8 7
-14 8 -14 2z m0 -30 c0 -5 -4 -10 -10 -10 -5 0 -10 5 -10 10 0 6 5 10 10 10 6
0 10 -4 10 -10z"/>
<path d="M3130 3033 c0 -7 -9 -13 -20 -13 -13 0 -18 -5 -14 -15 4 -9 0 -15 -7
-15 -11 0 -11 -2 1 -9 8 -6 18 -7 22 -5 4 3 8 -3 9 -13 0 -14 2 -15 6 -3 3 8
11 18 17 22 6 5 1 8 -11 8 -13 0 -23 5 -23 11 0 6 7 9 15 6 19 -8 26 5 14 23
-6 10 -9 11 -9 3z"/>
<path d="M3179 3030 c-1 -8 -1 -19 0 -24 1 -5 -4 -13 -11 -17 -9 -6 -7 -9 9
-9 12 0 24 -8 26 -17 4 -17 5 -17 6 0 0 9 7 17 14 17 8 0 7 3 -3 9 -8 6 -18 7
-22 5 -4 -3 -8 0 -8 5 0 6 9 11 20 11 14 0 18 5 13 16 -5 13 -7 13 -14 2 -7
-11 -11 -10 -19 2 -9 13 -10 13 -11 0z"/>
<path d="M3280 3030 c0 -5 -8 -10 -19 -10 -15 0 -18 -6 -15 -32 4 -34 14 -52
14 -24 0 11 7 16 18 14 10 -2 16 2 14 11 -2 8 1 17 6 20 6 3 4 12 -4 19 -8 7
-14 8 -14 2z m0 -30 c0 -5 -4 -10 -10 -10 -5 0 -10 5 -10 10 0 6 5 10 10 10 6
0 10 -4 10 -10z"/>
<path d="M3360 3033 c0 -7 -9 -13 -20 -13 -13 0 -18 -5 -14 -15 4 -9 0 -15 -7
-15 -11 0 -11 -2 1 -9 8 -6 18 -7 22 -5 4 3 8 -3 9 -13 0 -14 2 -15 6 -3 3 8
11 18 17 22 6 5 1 8 -11 8 -13 0 -23 5 -23 11 0 6 7 9 15 6 19 -8 26 5 14 23
-6 10 -9 11 -9 3z"/>
<path d="M3409 3030 c-1 -8 -1 -19 0 -24 1 -5 -4 -13 -11 -17 -9 -6 -7 -9 9
-9 12 0 24 -8 26 -17 4 -17 5 -17 6 0 0 9 7 17 14 17 8 0 7 3 -3 9 -8 6 -18 7
-22 5 -4 -3 -8 0 -8 5 0 6 9 11 20 11 14 0 18 5 13 16 -5 13 -7 13 -14 2 -7
-11 -11 -10 -19 2 -9 13 -10 13 -11 0z"/>
<path d="M328 3013 c27 -5 30 -23 3 -23 -15 0 -18 -5 -13 -22 5 -19 7 -20 10
-5 2 9 8 17 13 17 5 0 9 -8 10 -17 0 -15 2 -15 8 2 5 11 6 24 3 29 -2 4 2 12
9 17 9 6 0 8 -26 7 -23 0 -30 -3 -17 -5z"/>
<path d="M408 3013 c27 -5 30 -23 3 -23 -15 0 -18 -5 -13 -22 5 -19 7 -20 10
-5 2 10 11 16 20 15 10 -2 16 3 14 11 -2 8 3 18 10 22 8 5 -2 8 -27 7 -23 0
-30 -3 -17 -5z"/>
<path d="M638 3013 c27 -5 30 -23 3 -23 -15 0 -18 -5 -13 -22 5 -19 7 -20 10
-5 2 9 8 17 13 17 5 0 9 -8 10 -17 0 -15 2 -15 8 2 5 11 6 24 3 29 -2 4 2 12
9 17 9 6 0 8 -26 7 -23 0 -30 -3 -17 -5z"/>
<path d="M718 3013 c27 -5 30 -23 3 -23 -15 0 -18 -5 -13 -22 5 -19 7 -20 10
-5 2 10 11 16 20 15 10 -2 16 3 14 11 -2 8 3 18 10 22 8 5 -2 8 -27 7 -23 0
-30 -3 -17 -5z"/>
<path d="M868 3013 c27 -5 30 -23 3 -23 -15 0 -18 -5 -13 -22 5 -19 7 -20 10
-5 2 9 8 17 13 17 5 0 9 -8 10 -17 0 -15 2 -15 8 2 5 11 6 24 3 29 -2 4 2 12
9 17 9 6 0 8 -26 7 -23 0 -30 -3 -17 -5z"/>
<path d="M948 3013 c27 -5 30 -23 3 -23 -15 0 -18 -5 -13 -22 5 -19 7 -20 10
-5 2 10 11 16 20 15 10 -2 16 3 14 11 -2 8 3 18 10 22 8 5 -2 8 -27 7 -23 0
-30 -3 -17 -5z"/>
<path d="M1178 3013 c27 -5 30 -23 3 -23 -15 0 -18 -5 -13 -22 5 -19 7 -20 10
-5 2 10 11 16 20 15 10 -2 16 3 14 11 -2 8 3 18 10 22 8 5 -2 8 -27 7 -23 0
-30 -3 -17 -5z"/>
<path d="M1408 3013 c27 -5 30 -23 3 -23 -15 0 -18 -5 -13 -22 5 -19 7 -20 10
-5 2 9 8 17 13 17 5 0 9 -8 10 -17 0 -15 2 -15 8 2 5 11 6 24 3 29 -2 4 2 12
9 17 9 6 0 8 -26 7 -23 0 -30 -3 -17 -5z"/>
<path d="M1488 3013 c27 -5 30 -23 3 -23 -15 0 -18 -5 -13 -22 5 -19 7 -20 10
-5 2 10 11 16 20 15 10 -2 16 3 14 11 -2 8 3 18 10 22 8 5 -2 8 -27 7 -23 0
-30 -3 -17 -5z"/>
<path d="M2178 3013 c27 -5 30 -23 3 -23 -15 0 -18 -5 -13 -22 5 -19 7 -20 10
-5 2 9 8 17 13 17 5 0 9 -8 10 -17 0 -15 2 -15 8 2 5 11 6 24 3 29 -2 4 2 12
9 17 9 6 0 8 -26 7 -23 0 -30 -3 -17 -5z"/>
<path d="M2408 3013 c27 -5 30 -23 3 -23 -15 0 -18 -5 -13 -22 5 -19 7 -20 10
-5 2 9 8 17 13 17 5 0 9 -8 10 -17 0 -15 2 -15 8 2 5 11 6 24 3 29 -2 4 2 12
9 17 9 6 0 8 -26 7 -23 0 -30 -3 -17 -5z"/>
<path d="M2718 3013 c27 -5 30 -23 3 -23 -15 0 -18 -5 -13 -22 5 -19 7 -20 10
-5 2 9 8 17 13 17 5 0 9 -8 10 -17 0 -15 2 -15 8 2 5 11 6 24 3 29 -2 4 2 12
9 17 9 6 0 8 -26 7 -23 0 -30 -3 -17 -5z"/>
<path d="M2948 3013 c27 -5 30 -23 3 -23 -15 0 -18 -5 -13 -22 5 -19 7 -20 10
-5 2 9 8 17 13 17 5 0 9 -8 10 -17 0 -15 2 -15 8 2 5 11 6 24 3 29 -2 4 2 12
9 17 9 6 0 8 -26 7 -23 0 -30 -3 -17 -5z"/>
<path d="M3488 3013 c27 -5 30 -23 3 -23 -15 0 -18 -5 -13 -22 5 -19 7 -20 10
-5 2 9 8 17 13 17 5 0 9 -8 10 -17 0 -15 2 -15 8 2 5 11 6 24 3 29 -2 4 2 12
9 17 9 6 0 8 -26 7 -23 0 -30 -3 -17 -5z"/>
<path d="M280 2843 c0 -7 -8 -13 -18 -13 -13 0 -18 -7 -17 -22 1 -18 7 -22 26
-20 32 5 38 12 11 12 -12 0 -22 5 -22 11 0 6 7 9 15 6 19 -8 26 5 14 23 -6 10
-9 11 -9 3z"/>
<path d="M510 2843 c0 -7 -8 -13 -18 -13 -13 0 -18 -7 -17 -22 1 -18 7 -22 26
-20 32 5 38 12 11 12 -12 0 -22 5 -22 11 0 6 7 9 15 6 19 -8 26 5 14 23 -6 10
-9 11 -9 3z"/>
<path d="M559 2840 c-1 -8 -1 -19 0 -24 1 -5 -4 -13 -11 -17 -9 -6 -6 -9 10
-9 14 0 22 -6 23 -17 0 -14 2 -15 6 -3 3 8 11 18 17 22 6 5 1 8 -11 8 -13 0
-23 5 -23 10 0 6 9 10 20 10 14 0 18 5 13 16 -5 13 -7 13 -14 2 -7 -11 -11
-10 -19 2 -9 13 -10 13 -11 0z"/>
<path d="M789 2840 c-1 -8 -1 -19 0 -24 1 -5 -4 -13 -11 -17 -9 -6 -6 -9 10
-9 14 0 22 -6 23 -17 0 -14 2 -15 6 -3 3 8 11 18 17 22 6 5 1 8 -11 8 -13 0
-23 5 -23 10 0 6 9 10 20 10 14 0 18 5 13 16 -5 13 -7 13 -14 2 -7 -11 -11
-10 -19 2 -9 13 -10 13 -11 0z"/>
<path d="M1050 2843 c0 -7 -8 -13 -18 -13 -13 0 -18 -7 -17 -22 1 -18 7 -22
26 -20 32 5 38 12 11 12 -12 0 -22 5 -22 11 0 6 7 9 15 6 19 -8 26 5 14 23 -6
10 -9 11 -9 3z"/>
<path d="M1099 2840 c-1 -8 -1 -19 0 -24 1 -5 -4 -13 -11 -17 -9 -6 -6 -9 10
-9 14 0 22 -6 23 -17 0 -14 2 -15 6 -3 3 8 11 18 17 22 6 5 1 8 -11 8 -13 0
-23 5 -23 10 0 6 9 10 20 10 14 0 18 5 13 16 -5 13 -7 13 -14 2 -7 -11 -11
-10 -19 2 -9 13 -10 13 -11 0z"/>
<path d="M1280 2843 c0 -7 -8 -13 -18 -13 -13 0 -18 -7 -17 -22 1 -18 7 -22
26 -20 32 5 38 12 11 12 -12 0 -22 5 -22 11 0 6 7 9 15 6 19 -8 26 5 14 23 -6
10 -9 11 -9 3z"/>
<path d="M1329 2840 c-1 -8 -1 -19 0 -24 1 -5 -4 -13 -11 -17 -9 -6 -6 -9 10
-9 14 0 22 -6 23 -17 0 -14 2 -15 6 -3 3 8 11 18 17 22 6 5 1 8 -11 8 -13 0
-23 5 -23 10 0 6 9 10 20 10 14 0 18 5 13 16 -5 13 -7 13 -14 2 -7 -11 -11
-10 -19 2 -9 13 -10 13 -11 0z"/>
<path d="M2280 2840 c0 -5 -8 -10 -19 -10 -15 0 -18 -6 -15 -32 4 -34 14 -52
14 -24 0 11 7 16 18 14 10 -2 16 2 14 11 -2 8 1 17 6 20 6 3 4 12 -4 19 -8 7
-14 8 -14 2z m0 -30 c0 -5 -4 -10 -10 -10 -5 0 -10 5 -10 10 0 6 5 10 10 10 6
0 10 -4 10 -10z"/>
<path d="M2360 2843 c0 -7 -9 -13 -20 -13 -13 0 -18 -5 -14 -15 4 -9 0 -15 -7
-15 -11 0 -11 -2 1 -9 8 -6 18 -7 22 -5 4 3 8 -3 9 -13 0 -14 2 -15 6 -3 3 8
11 18 17 22 6 5 1 8 -11 8 -13 0 -23 5 -23 11 0 6 7 9 15 6 19 -8 26 5 14 23
-6 10 -9 11 -9 3z"/>
<path d="M2510 2840 c0 -5 -8 -10 -19 -10 -15 0 -18 -6 -15 -32 4 -34 14 -52
14 -24 0 11 7 16 18 14 10 -2 16 2 14 11 -2 8 1 17 6 20 6 3 4 12 -4 19 -8 7
-14 8 -14 2z m0 -30 c0 -5 -4 -10 -10 -10 -5 0 -10 5 -10 10 0 6 5 10 10 10 6
0 10 -4 10 -10z"/>
<path d="M2590 2843 c0 -7 -9 -13 -20 -13 -13 0 -18 -5 -14 -15 4 -9 0 -15 -7
-15 -11 0 -11 -2 1 -9 8 -6 18 -7 22 -5 4 3 8 -3 9 -13 0 -14 2 -15 6 -3 3 8
11 18 17 22 6 5 1 8 -11 8 -13 0 -23 5 -23 11 0 6 7 9 15 6 19 -8 26 5 14 23
-6 10 -9 11 -9 3z"/>
<path d="M2639 2840 c-1 -8 -1 -19 0 -24 1 -5 -4 -13 -11 -17 -9 -6 -7 -9 9
-9 12 0 24 -8 26 -17 4 -17 5 -17 6 0 0 9 7 17 14 17 8 0 7 3 -3 9 -8 6 -18 7
-22 5 -4 -3 -8 0 -8 5 0 6 9 11 20 11 14 0 18 5 13 16 -5 13 -7 13 -14 2 -7
-11 -11 -10 -19 2 -9 13 -10 13 -11 0z"/>
<path d="M2820 2843 c0 -7 -9 -13 -20 -13 -13 0 -18 -5 -14 -15 4 -9 0 -15 -7
-15 -11 0 -11 -2 1 -9 8 -6 18 -7 22 -5 4 3 8 -3 9 -13 0 -14 2 -15 6 -3 3 8
11 18 17 22 6 5 1 8 -11 8 -13 0 -23 5 -23 11 0 6 7 9 15 6 19 -8 26 5 14 23
-6 10 -9 11 -9 3z"/>
<path d="M2869 2840 c-1 -8 -1 -19 0 -24 1 -5 -4 -13 -11 -17 -9 -6 -7 -9 9
-9 12 0 24 -8 26 -17 4 -17 5 -17 6 0 0 9 7 17 14 17 8 0 7 3 -3 9 -8 6 -18 7
-22 5 -4 -3 -8 0 -8 5 0 6 9 11 20 11 14 0 18 5 13 16 -5 13 -7 13 -14 2 -7
-11 -11 -10 -19 2 -9 13 -10 13 -11 0z"/>
<path d="M3050 2840 c0 -5 -8 -10 -19 -10 -15 0 -18 -6 -15 -32 4 -34 14 -52
14 -24 0 11 7 16 18 14 10 -2 16 2 14 11 -2 8 1 17 6 20 6 3 4 12 -4 19 -8 7
-14 8 -14 2z m0 -30 c0 -5 -4 -10 -10 -10 -5 0 -10 5 -10 10 0 6 5 10 10 10 6
0 10 -4 10 -10z"/>
<path d="M3130 2843 c0 -7 -9 -13 -20 -13 -13 0 -18 -5 -14 -15 4 -9 0 -15 -7
-15 -11 0 -11 -2 1 -9 8 -6 18 -7 22 -5 4 3 8 -3 9 -13 0 -14 2 -15 6 -3 3 8
11 18 17 22 6 5 1 8 -11 8 -13 0 -23 5 -23 11 0 6 7 9 15 6 19 -8 26 5 14 23
-6 10 -9 11 -9 3z"/>
<path d="M3179 2840 c-1 -8 -1 -19 0 -24 1 -5 -4 -13 -11 -17 -9 -6 -7 -9 9
-9 12 0 24 -8 26 -17 4 -17 5 -17 6 0 0 9 7 17 14 17 8 0 7 3 -3 9 -8 6 -18 7
-22 5 -4 -3 -8 0 -8 5 0 6 9 11 20 11 14 0 18 5 13 16 -5 13 -7 13 -14 2 -7
-11 -11 -10 -19 2 -9 13 -10 13 -11 0z"/>
<path d="M3280 2840 c0 -5 -8 -10 -19 -10 -15 0 -18 -6 -15 -32 4 -34 14 -52
14 -24 0 11 7 16 18 14 10 -2 16 2 14 11 -2 8 1 17 6 20 6 3 4 12 -4 19 -8 7
-14 8 -14 2z m0 -30 c0 -5 -4 -10 -10 -10 -5 0 -10 5 -10 10 0 6 5 10 10 10 6
0 10 -4 10 -10z"/>
<path d="M3360 2843 c0 -7 -9 -13 -20 -13 -13 0 -18 -5 -14 -15 4 -9 0 -15 -7
-15 -11 0 -11 -2 1 -9 8 -6 18 -7 22 -5 4 3 8 -3 9 -13 0 -14 2 -15 6 -3 3 8
11 18 17 22 6 5 1 8 -11 8 -13 0 -23 5 -23 11 0 6 7 9 15 6 19 -8 26 5 14 23
-6 10 -9 11 -9 3z"/>
<path d="M3409 2840 c-1 -8 -1 -19 0 -24 1 -5 -4 -13 -11 -17 -9 -6 -7 -9 9
-9 12 0 24 -8 26 -17 4 -17 5 -17 6 0 0 9 7 17 14 17 8 0 7 3 -3 9 -8 6 -18 7
-22 5 -4 -3 -8 0 -8 5 0 6 9 11 20 11 14 0 18 5 13 16 -5 13 -7 13 -14 2 -7
-11 -11 -10 -19 2 -9 13 -10 13 -11 0z"/>
<path d="M328 2823 c27 -5 30 -23 3 -23 -15 0 -18 -5 -13 -22 5 -19 7 -20 10
-5 2 9 8 17 13 17 5 0 9 -8 10 -17 0 -15 2 -15 8 2 5 11 6 24 3 29 -2 4 2 12
9 17 9 6 0 8 -26 7 -23 0 -30 -3 -17 -5z"/>
<path d="M408 2823 c27 -5 30 -23 3 -23 -15 0 -18 -5 -13 -22 5 -19 7 -20 10
-5 2 10 11 16 20 15 10 -2 16 3 14 11 -2 8 3 18 10 22 8 5 -2 8 -27 7 -23 0
-30 -3 -17 -5z"/>
<path d="M638 2823 c27 -5 30 -23 3 -23 -15 0 -18 -5 -13 -22 5 -19 7 -20 10
-5 2 9 8 17 13 17 5 0 9 -8 10 -17 0 -15 2 -15 8 2 5 11 6 24 3 29 -2 4 2 12
9 17 9 6 0 8 -26 7 -23 0 -30 -3 -17 -5z"/>
<path d="M718 2823 c27 -5 30 -23 3 -23 -15 0 -18 -5 -13 -22 5 -19 7 -20 10
-5 2 10 11 16 20 15 10 -2 16 3 14 11 -2 8 3 18 10 22 8 5 -2 8 -27 7 -23 0
-30 -3 -17 -5z"/>
<path d="M868 2823 c27 -5 30 -23 3 -23 -15 0 -18 -5 -13 -22 5 -19 7 -20 10
-5 2 9 8 17 13 17 5 0 9 -8 10 -17 0 -15 2 -15 8 2 5 11 6 24 3 29 -2 4 2 12
9 17 9 6 0 8 -26 7 -23 0 -30 -3 -17 -5z"/>
<path d="M948 2823 c27 -5 30 -23 3 -23 -15 0 -18 -5 -13 -22 5 -19 7 -20 10
-5 2 10 11 16 20 15 10 -2 16 3 14 11 -2 8 3 18 10 22 8 5 -2 8 -27 7 -23 0
-30 -3 -17 -5z"/>
<path d="M1178 2823 c27 -5 30 -23 3 -23 -15 0 -18 -5 -13 -22 5 -19 7 -20 10
-5 2 10 11 16 20 15 10 -2 16 3 14 11 -2 8 3 18 10 22 8 5 -2 8 -27 7 -23 0
-30 -3 -17 -5z"/>
<path d="M1408 2823 c27 -5 30 -23 3 -23 -15 0 -18 -5 -13 -22 5 -19 7 -20 10
-5 2 9 8 17 13 17 5 0 9 -8 10 -17 0 -15 2 -15 8 2 5 11 6 24 3 29 -2 4 2 12
9 17 9 6 0 8 -26 7 -23 0 -30 -3 -17 -5z"/>
<path d="M1488 2823 c27 -5 30 -23 3 -23 -15 0 -18 -5 -13 -22 5 -19 7 -20 10
-5 2 10 11 16 20 15 10 -2 16 3 14 11 -2 8 3 18 10 22 8 5 -2 8 -27 7 -23 0
-30 -3 -17 -5z"/>
<path d="M2408 2823 c27 -5 30 -23 3 -23 -15 0 -18 -5 -13 -22 5 -19 7 -20 10
-5 2 9 8 17 13 17 5 0 9 -8 10 -17 0 -15 2 -15 8 2 5 11 6 24 3 29 -2 4 2 12
9 17 9 6 0 8 -26 7 -23 0 -30 -3 -17 -5z"/>
<path d="M2718 2823 c27 -5 30 -23 3 -23 -15 0 -18 -5 -13 -22 5 -19 7 -20 10
-5 2 9 8 17 13 17 5 0 9 -8 10 -17 0 -15 2 -15 8 2 5 11 6 24 3 29 -2 4 2 12
9 17 9 6 0 8 -26 7 -23 0 -30 -3 -17 -5z"/>
<path d="M2948 2823 c27 -5 30 -23 3 -23 -15 0 -18 -5 -13 -22 5 -19 7 -20 10
-5 2 9 8 17 13 17 5 0 9 -8 10 -17 0 -15 2 -15 8 2 5 11 6 24 3 29 -2 4 2 12
9 17 9 6 0 8 -26 7 -23 0 -30 -3 -17 -5z"/>
<path d="M3488 2823 c27 -5 30 -23 3 -23 -15 0 -18 -5 -13 -22 5 -19 7 -20 10
-5 2 9 8 17 13 17 5 0 9 -8 10 -17 0 -15 2 -15 8 2 5 11 6 24 3 29 -2 4 2 12
9 17 9 6 0 8 -26 7 -23 0 -30 -3 -17 -5z"/>
<path d="M280 2643 c0 -7 -8 -13 -18 -13 -13 0 -18 -7 -17 -22 1 -18 7 -22 26
-20 32 5 38 12 11 12 -12 0 -22 5 -22 11 0 6 7 9 15 6 19 -8 26 5 14 23 -6 10
-9 11 -9 3z"/>
<path d="M510 2643 c0 -7 -8 -13 -18 -13 -13 0 -18 -7 -17 -22 1 -18 7 -22 26
-20 32 5 38 12 11 12 -12 0 -22 5 -22 11 0 6 7 9 15 6 19 -8 26 5 14 23 -6 10
-9 11 -9 3z"/>
<path d="M559 2640 c-1 -8 -1 -19 0 -24 1 -5 -4 -13 -11 -17 -9 -6 -6 -9 10
-9 14 0 22 -6 23 -17 0 -14 2 -15 6 -3 3 8 11 18 17 22 6 5 1 8 -11 8 -13 0
-23 5 -23 10 0 6 9 10 20 10 14 0 18 5 13 16 -5 13 -7 13 -14 2 -7 -11 -11
-10 -19 2 -9 13 -10 13 -11 0z"/>
<path d="M789 2640 c-1 -8 -1 -19 0 -24 1 -5 -4 -13 -11 -17 -9 -6 -6 -9 10
-9 14 0 22 -6 23 -17 0 -14 2 -15 6 -3 3 8 11 18 17 22 6 5 1 8 -11 8 -13 0
-23 5 -23 10 0 6 9 10 20 10 14 0 18 5 13 16 -5 13 -7 13 -14 2 -7 -11 -11
-10 -19 2 -9 13 -10 13 -11 0z"/>
<path d="M1050 2643 c0 -7 -8 -13 -18 -13 -13 0 -18 -7 -17 -22 1 -18 7 -22
26 -20 32 5 38 12 11 12 -12 0 -22 5 -22 11 0 6 7 9 15 6 19 -8 26 5 14 23 -6
10 -9 11 -9 3z"/>
<path d="M1099 2640 c-1 -8 -1 -19 0 -24 1 -5 -4 -13 -11 -17 -9 -6 -6 -9 10
-9 14 0 22 -6 23 -17 0 -14 2 -15 6 -3 3 8 11 18 17 22 6 5 1 8 -11 8 -13 0
-23 5 -23 10 0 6 9 10 20 10 14 0 18 5 13 16 -5 13 -7 13 -14 2 -7 -11 -11
-10 -19 2 -9 13 -10 13 -11 0z"/>
<path d="M1280 2643 c0 -7 -8 -13 -18 -13 -13 0 -18 -7 -17 -22 1 -18 7 -22
26 -20 32 5 38 12 11 12 -12 0 -22 5 -22 11 0 6 7 9 15 6 19 -8 26 5 14 23 -6
10 -9 11 -9 3z"/>
<path d="M1329 2640 c-1 -8 -1 -19 0 -24 1 -5 -4 -13 -11 -17 -9 -6 -6 -9 10
-9 14 0 22 -6 23 -17 0 -14 2 -15 6 -3 3 8 11 18 17 22 6 5 1 8 -11 8 -13 0
-23 5 -23 10 0 6 9 10 20 10 14 0 18 5 13 16 -5 13 -7 13 -14 2 -7 -11 -11
-10 -19 2 -9 13 -10 13 -11 0z"/>
<path d="M1869 2640 c-1 -8 -1 -19 0 -24 1 -5 -4 -13 -11 -17 -9 -6 -6 -9 10
-9 14 0 22 -6 23 -17 0 -14 2 -15 6 -3 3 8 11 18 17 22 6 5 1 8 -11 8 -13 0
-23 5 -23 10 0 6 9 10 20 10 14 0 18 5 13 16 -5 13 -7 13 -14 2 -7 -11 -11
-10 -19 2 -9 13 -10 13 -11 0z"/>
<path d="M2360 2643 c0 -7 -9 -13 -20 -13 -13 0 -18 -5 -14 -15 4 -9 0 -15 -7
-15 -11 0 -11 -2 1 -9 8 -6 18 -7 22 -5 4 3 8 -3 9 -13 0 -14 2 -15 6 -3 3 8
11 18 17 22 6 5 1 8 -11 8 -13 0 -23 5 -23 11 0 6 7 9 15 6 19 -8 26 5 14 23
-6 10 -9 11 -9 3z"/>
<path d="M2510 2640 c0 -5 -8 -10 -19 -10 -15 0 -18 -6 -15 -32 4 -34 14 -52
14 -24 0 11 7 16 18 14 10 -2 16 2 14 11 -2 8 1 17 6 20 6 3 4 12 -4 19 -8 7
-14 8 -14 2z m0 -30 c0 -5 -4 -10 -10 -10 -5 0 -10 5 -10 10 0 6 5 10 10 10 6
0 10 -4 10 -10z"/>
<path d="M2590 2643 c0 -7 -9 -13 -20 -13 -13 0 -18 -5 -14 -15 4 -9 0 -15 -7
-15 -11 0 -11 -2 1 -9 8 -6 18 -7 22 -5 4 3 8 -3 9 -13 0 -14 2 -15 6 -3 3 8
11 18 17 22 6 5 1 8 -11 8 -13 0 -23 5 -23 11 0 6 7 9 15 6 19 -8 26 5 14 23
-6 10 -9 11 -9 3z"/>
<path d="M2639 2640 c-1 -8 -1 -19 0 -24 1 -5 -4 -13 -11 -17 -9 -6 -7 -9 9
-9 12 0 24 -8 26 -17 4 -17 5 -17 6 0 0 9 7 17 14 17 8 0 7 3 -3 9 -8 6 -18 7
-22 5 -4 -3 -8 0 -8 5 0 6 9 11 20 11 14 0 18 5 13 16 -5 13 -7 13 -14 2 -7
-11 -11 -10 -19 2 -9 13 -10 13 -11 0z"/>
<path d="M2820 2643 c0 -7 -9 -13 -20 -13 -13 0 -18 -5 -14 -15 4 -9 0 -15 -7
-15 -11 0 -11 -2 1 -9 8 -6 18 -7 22 -5 4 3 8 -3 9 -13 0 -14 2 -15 6 -3 3 8
11 18 17 22 6 5 1 8 -11 8 -13 0 -23 5 -23 11 0 6 7 9 15 6 19 -8 26 5 14 23
-6 10 -9 11 -9 3z"/>
<path d="M2869 2640 c-1 -8 -1 -19 0 -24 1 -5 -4 -13 -11 -17 -9 -6 -7 -9 9
-9 12 0 24 -8 26 -17 4 -17 5 -17 6 0 0 9 7 17 14 17 8 0 7 3 -3 9 -8 6 -18 7
-22 5 -4 -3 -8 0 -8 5 0 6 9 11 20 11 14 0 18 5 13 16 -5 13 -7 13 -14 2 -7
-11 -11 -10 -19 2 -9 13 -10 13 -11 0z"/>
<path d="M3050 2640 c0 -5 -8 -10 -19 -10 -15 0 -18 -6 -15 -32 4 -34 14 -52
14 -24 0 11 7 16 18 14 10 -2 16 2 14 11 -2 8 1 17 6 20 6 3 4 12 -4 19 -8 7
-14 8 -14 2z m0 -30 c0 -5 -4 -10 -10 -10 -5 0 -10 5 -10 10 0 6 5 10 10 10 6
0 10 -4 10 -10z"/>
<path d="M3130 2643 c0 -7 -9 -13 -20 -13 -13 0 -18 -5 -14 -15 4 -9 0 -15 -7
-15 -11 0 -11 -2 1 -9 8 -6 18 -7 22 -5 4 3 8 -3 9 -13 0 -14 2 -15 6 -3 3 8
11 18 17 22 6 5 1 8 -11 8 -13 0 -23 5 -23 11 0 6 7 9 15 6 19 -8 26 5 14 23
-6 10 -9 11 -9 3z"/>
<path d="M3179 2640 c-1 -8 -1 -19 0 -24 1 -5 -4 -13 -11 -17 -9 -6 -7 -9 9
-9 12 0 24 -8 26 -17 4 -17 5 -17 6 0 0 9 7 17 14 17 8 0 7 3 -3 9 -8 6 -18 7
-22 5 -4 -3 -8 0 -8 5 0 6 9 11 20 11 14 0 18 5 13 16 -5 13 -7 13 -14 2 -7
-11 -11 -10 -19 2 -9 13 -10 13 -11 0z"/>
<path d="M3280 2640 c0 -5 -8 -10 -19 -10 -15 0 -18 -6 -15 -32 4 -34 14 -52
14 -24 0 11 7 16 18 14 10 -2 16 2 14 11 -2 8 1 17 6 20 6 3 4 12 -4 19 -8 7
-14 8 -14 2z m0 -30 c0 -5 -4 -10 -10 -10 -5 0 -10 5 -10 10 0 6 5 10 10 10 6
0 10 -4 10 -10z"/>
<path d="M3360 2643 c0 -7 -9 -13 -20 -13 -13 0 -18 -5 -14 -15 4 -9 0 -15 -7
-15 -11 0 -11 -2 1 -9 8 -6 18 -7 22 -5 4 3 8 -3 9 -13 0 -14 2 -15 6 -3 3 8
11 18 17 22 6 5 1 8 -11 8 -13 0 -23 5 -23 11 0 6 7 9 15 6 19 -8 26 5 14 23
-6 10 -9 11 -9 3z"/>
<path d="M3409 2640 c-1 -8 -1 -19 0 -24 1 -5 -4 -13 -11 -17 -9 -6 -7 -9 9
-9 12 0 24 -8 26 -17 4 -17 5 -17 6 0 0 9 7 17 14 17 8 0 7 3 -3 9 -8 6 -18 7
-22 5 -4 -3 -8 0 -8 5 0 6 9 11 20 11 14 0 18 5 13 16 -5 13 -7 13 -14 2 -7
-11 -11 -10 -19 2 -9 13 -10 13 -11 0z"/>
<path d="M328 2623 c27 -5 30 -23 3 -23 -15 0 -18 -5 -13 -22 5 -19 7 -20 10
-5 2 9 8 17 13 17 5 0 9 -8 10 -17 0 -15 2 -15 8 2 5 11 6 24 3 29 -2 4 2 12
9 17 9 6 0 8 -26 7 -23 0 -30 -3 -17 -5z"/>
<path d="M408 2623 c27 -5 30 -23 3 -23 -15 0 -18 -5 -13 -22 5 -19 7 -20 10
-5 2 10 11 16 20 15 10 -2 16 3 14 11 -2 8 3 18 10 22 8 5 -2 8 -27 7 -23 0
-30 -3 -17 -5z"/>
<path d="M638 2623 c27 -5 30 -23 3 -23 -15 0 -18 -5 -13 -22 5 -19 7 -20 10
-5 2 9 8 17 13 17 5 0 9 -8 10 -17 0 -15 2 -15 8 2 5 11 6 24 3 29 -2 4 2 12
9 17 9 6 0 8 -26 7 -23 0 -30 -3 -17 -5z"/>
<path d="M718 2623 c27 -5 30 -23 3 -23 -15 0 -18 -5 -13 -22 5 -19 7 -20 10
-5 2 10 11 16 20 15 10 -2 16 3 14 11 -2 8 3 18 10 22 8 5 -2 8 -27 7 -23 0
-30 -3 -17 -5z"/>
<path d="M868 2623 c27 -5 30 -23 3 -23 -15 0 -18 -5 -13 -22 5 -19 7 -20 10
-5 2 9 8 17 13 17 5 0 9 -8 10 -17 0 -15 2 -15 8 2 5 11 6 24 3 29 -2 4 2 12
9 17 9 6 0 8 -26 7 -23 0 -30 -3 -17 -5z"/>
<path d="M948 2623 c27 -5 30 -23 3 -23 -15 0 -18 -5 -13 -22 5 -19 7 -20 10
-5 2 10 11 16 20 15 10 -2 16 3 14 11 -2 8 3 18 10 22 8 5 -2 8 -27 7 -23 0
-30 -3 -17 -5z"/>
<path d="M1178 2623 c27 -5 30 -23 3 -23 -15 0 -18 -5 -13 -22 5 -19 7 -20 10
-5 2 10 11 16 20 15 10 -2 16 3 14 11 -2 8 3 18 10 22 8 5 -2 8 -27 7 -23 0
-30 -3 -17 -5z"/>
<path d="M1408 2623 c27 -5 30 -23 3 -23 -15 0 -18 -5 -13 -22 5 -19 7 -20 10
-5 2 9 8 17 13 17 5 0 9 -8 10 -17 0 -15 2 -15 8 2 5 11 6 24 3 29 -2 4 2 12
9 17 9 6 0 8 -26 7 -23 0 -30 -3 -17 -5z"/>
<path d="M2408 2623 c27 -5 30 -23 3 -23 -15 0 -18 -5 -13 -22 5 -19 7 -20 10
-5 2 9 8 17 13 17 5 0 9 -8 10 -17 0 -15 2 -15 8 2 5 11 6 24 3 29 -2 4 2 12
9 17 9 6 0 8 -26 7 -23 0 -30 -3 -17 -5z"/>
<path d="M2718 2623 c27 -5 30 -23 3 -23 -15 0 -18 -5 -13 -22 5 -19 7 -20 10
-5 2 9 8 17 13 17 5 0 9 -8 10 -17 0 -15 2 -15 8 2 5 11 6 24 3 29 -2 4 2 12
9 17 9 6 0 8 -26 7 -23 0 -30 -3 -17 -5z"/>
<path d="M2948 2623 c27 -5 30 -23 3 -23 -15 0 -18 -5 -13 -22 5 -19 7 -20 10
-5 2 9 8 17 13 17 5 0 9 -8 10 -17 0 -15 2 -15 8 2 5 11 6 24 3 29 -2 4 2 12
9 17 9 6 0 8 -26 7 -23 0 -30 -3 -17 -5z"/>
<path d="M1855 2450 c-10 -16 3 -29 26 -27 11 1 25 11 30 22 9 19 9 19 -4 2
-13 -15 -15 -16 -21 -2 -6 17 -22 20 -31 5z m25 -10 c0 -5 -4 -10 -10 -10 -5
0 -10 5 -10 10 0 6 5 10 10 10 6 0 10 -4 10 -10z"/>
<path d="M510 2443 c0 -7 -8 -13 -18 -13 -13 0 -18 -7 -17 -22 1 -18 7 -22 26
-20 32 5 38 12 11 12 -12 0 -22 5 -22 11 0 6 7 9 15 6 19 -8 26 5 14 23 -6 10
-9 11 -9 3z"/>
<path d="M559 2440 c-1 -8 -1 -19 0 -24 1 -5 -4 -13 -11 -17 -9 -6 -6 -9 10
-9 14 0 22 -6 23 -17 0 -14 2 -15 6 -3 3 8 11 18 17 22 6 5 1 8 -11 8 -13 0
-23 5 -23 10 0 6 9 10 20 10 14 0 18 5 13 16 -5 13 -7 13 -14 2 -7 -11 -11
-10 -19 2 -9 13 -10 13 -11 0z"/>
<path d="M789 2440 c-1 -8 -1 -19 0 -24 1 -5 -4 -13 -11 -17 -9 -6 -6 -9 10
-9 14 0 22 -6 23 -17 0 -14 2 -15 6 -3 3 8 11 18 17 22 6 5 1 8 -11 8 -13 0
-23 5 -23 10 0 6 9 10 20 10 14 0 18 5 13 16 -5 13 -7 13 -14 2 -7 -11 -11
-10 -19 2 -9 13 -10 13 -11 0z"/>
<path d="M1050 2443 c0 -7 -8 -13 -18 -13 -13 0 -18 -7 -17 -22 1 -18 7 -22
26 -20 32 5 38 12 11 12 -12 0 -22 5 -22 11 0 6 7 9 15 6 19 -8 26 5 14 23 -6
10 -9 11 -9 3z"/>
<path d="M1099 2440 c-1 -8 -1 -19 0 -24 1 -5 -4 -13 -11 -17 -9 -6 -6 -9 10
-9 14 0 22 -6 23 -17 0 -14 2 -15 6 -3 3 8 11 18 17 22 6 5 1 8 -11 8 -13 0
-23 5 -23 10 0 6 9 10 20 10 14 0 18 5 13 16 -5 13 -7 13 -14 2 -7 -11 -11
-10 -19 2 -9 13 -10 13 -11 0z"/>
<path d="M1280 2443 c0 -7 -8 -13 -18 -13 -13 0 -18 -7 -17 -22 1 -18 7 -22
26 -20 32 5 38 12 11 12 -12 0 -22 5 -22 11 0 6 7 9 15 6 19 -8 26 5 14 23 -6
10 -9 11 -9 3z"/>
<path d="M1329 2440 c-1 -8 -1 -19 0 -24 1 -5 -4 -13 -11 -17 -9 -6 -6 -9 10
-9 14 0 22 -6 23 -17 0 -14 2 -15 6 -3 3 8 11 18 17 22 6 5 1 8 -11 8 -13 0
-23 5 -23 10 0 6 9 10 20 10 14 0 18 5 13 16 -5 13 -7 13 -14 2 -7 -11 -11
-10 -19 2 -9 13 -10 13 -11 0z"/>
<path d="M1820 2443 c0 -7 -8 -13 -18 -13 -13 0 -18 -7 -17 -22 1 -18 7 -22
26 -20 32 5 38 12 11 12 -12 0 -22 5 -22 11 0 6 7 9 15 6 19 -8 26 5 14 23 -6
10 -9 11 -9 3z"/>
<path d="M2510 2440 c0 -5 -8 -10 -19 -10 -15 0 -18 -6 -15 -32 4 -34 14 -52
14 -24 0 11 7 16 18 14 10 -2 16 2 14 11 -2 8 1 17 6 20 6 3 4 12 -4 19 -8 7
-14 8 -14 2z m0 -30 c0 -5 -4 -10 -10 -10 -5 0 -10 5 -10 10 0 6 5 10 10 10 6
0 10 -4 10 -10z"/>
<path d="M2590 2443 c0 -7 -9 -13 -20 -13 -13 0 -18 -5 -14 -15 4 -9 0 -15 -7
-15 -11 0 -11 -2 1 -9 8 -6 18 -7 22 -5 4 3 8 -3 9 -13 0 -14 2 -15 6 -3 3 8
11 18 17 22 6 5 1 8 -11 8 -13 0 -23 5 -23 11 0 6 7 9 15 6 19 -8 26 5 14 23
-6 10 -9 11 -9 3z"/>
<path d="M2639 2440 c-1 -8 -1 -19 0 -24 1 -5 -4 -13 -11 -17 -9 -6 -7 -9 9
-9 12 0 24 -8 26 -17 4 -17 5 -17 6 0 0 9 7 17 14 17 8 0 7 3 -3 9 -8 6 -18 7
-22 5 -4 -3 -8 0 -8 5 0 6 9 11 20 11 14 0 18 5 13 16 -5 13 -7 13 -14 2 -7
-11 -11 -10 -19 2 -9 13 -10 13 -11 0z"/>
<path d="M2820 2443 c0 -7 -9 -13 -20 -13 -13 0 -18 -5 -14 -15 4 -9 0 -15 -7
-15 -11 0 -11 -2 1 -9 8 -6 18 -7 22 -5 4 3 8 -3 9 -13 0 -14 2 -15 6 -3 3 8
11 18 17 22 6 5 1 8 -11 8 -13 0 -23 5 -23 11 0 6 7 9 15 6 19 -8 26 5 14 23
-6 10 -9 11 -9 3z"/>
<path d="M2869 2440 c-1 -8 -1 -19 0 -24 1 -5 -4 -13 -11 -17 -9 -6 -7 -9 9
-9 12 0 24 -8 26 -17 4 -17 5 -17 6 0 0 9 7 17 14 17 8 0 7 3 -3 9 -8 6 -18 7
-22 5 -4 -3 -8 0 -8 5 0 6 9 11 20 11 14 0 18 5 13 16 -5 13 -7 13 -14 2 -7
-11 -11 -10 -19 2 -9 13 -10 13 -11 0z"/>
<path d="M3050 2440 c0 -5 -8 -10 -19 -10 -15 0 -18 -6 -15 -32 4 -34 14 -52
14 -24 0 11 7 16 18 14 10 -2 16 2 14 11 -2 8 1 17 6 20 6 3 4 12 -4 19 -8 7
-14 8 -14 2z m0 -30 c0 -5 -4 -10 -10 -10 -5 0 -10 5 -10 10 0 6 5 10 10 10 6
0 10 -4 10 -10z"/>
<path d="M3130 2443 c0 -7 -9 -13 -20 -13 -13 0 -18 -5 -14 -15 4 -9 0 -15 -7
-15 -11 0 -11 -2 1 -9 8 -6 18 -7 22 -5 4 3 8 -3 9 -13 0 -14 2 -15 6 -3 3 8
11 18 17 22 6 5 1 8 -11 8 -13 0 -23 5 -23 11 0 6 7 9 15 6 19 -8 26 5 14 23
-6 10 -9 11 -9 3z"/>
<path d="M3179 2440 c-1 -8 -1 -19 0 -24 1 -5 -4 -13 -11 -17 -9 -6 -7 -9 9
-9 12 0 24 -8 26 -17 4 -17 5 -17 6 0 0 9 7 17 14 17 8 0 7 3 -3 9 -8 6 -18 7
-22 5 -4 -3 -8 0 -8 5 0 6 9 11 20 11 14 0 18 5 13 16 -5 13 -7 13 -14 2 -7
-11 -11 -10 -19 2 -9 13 -10 13 -11 0z"/>
<path d="M3280 2440 c0 -5 -8 -10 -19 -10 -15 0 -18 -6 -15 -32 4 -34 14 -52
14 -24 0 11 7 16 18 14 10 -2 16 2 14 11 -2 8 1 17 6 20 6 3 4 12 -4 19 -8 7
-14 8 -14 2z m0 -30 c0 -5 -4 -10 -10 -10 -5 0 -10 5 -10 10 0 6 5 10 10 10 6
0 10 -4 10 -10z"/>
<path d="M3360 2443 c0 -7 -9 -13 -20 -13 -13 0 -18 -5 -14 -15 4 -9 0 -15 -7
-15 -11 0 -11 -2 1 -9 8 -6 18 -7 22 -5 4 3 8 -3 9 -13 0 -14 2 -15 6 -3 3 8
11 18 17 22 6 5 1 8 -11 8 -13 0 -23 5 -23 11 0 6 7 9 15 6 19 -8 26 5 14 23
-6 10 -9 11 -9 3z"/>
<path d="M3409 2440 c-1 -8 -1 -19 0 -24 1 -5 -4 -13 -11 -17 -9 -6 -7 -9 9
-9 12 0 24 -8 26 -17 4 -17 5 -17 6 0 0 9 7 17 14 17 8 0 7 3 -3 9 -8 6 -18 7
-22 5 -4 -3 -8 0 -8 5 0 6 9 11 20 11 14 0 18 5 13 16 -5 13 -7 13 -14 2 -7
-11 -11 -10 -19 2 -9 13 -10 13 -11 0z"/>
<path d="M328 2423 c27 -5 30 -23 3 -23 -15 0 -18 -5 -13 -22 5 -19 7 -20 10
-5 2 9 8 17 13 17 5 0 9 -8 10 -17 0 -15 2 -15 8 2 5 11 6 24 3 29 -2 4 2 12
9 17 9 6 0 8 -26 7 -23 0 -30 -3 -17 -5z"/>
<path d="M408 2423 c27 -5 30 -23 3 -23 -15 0 -18 -5 -13 -22 5 -19 7 -20 10
-5 2 10 11 16 20 15 10 -2 16 3 14 11 -2 8 3 18 10 22 8 5 -2 8 -27 7 -23 0
-30 -3 -17 -5z"/>
<path d="M638 2423 c27 -5 30 -23 3 -23 -15 0 -18 -5 -13 -22 5 -19 7 -20 10
-5 2 9 8 17 13 17 5 0 9 -8 10 -17 0 -15 2 -15 8 2 5 11 6 24 3 29 -2 4 2 12
9 17 9 6 0 8 -26 7 -23 0 -30 -3 -17 -5z"/>
<path d="M718 2423 c27 -5 30 -23 3 -23 -15 0 -18 -5 -13 -22 5 -19 7 -20 10
-5 2 10 11 16 20 15 10 -2 16 3 14 11 -2 8 3 18 10 22 8 5 -2 8 -27 7 -23 0
-30 -3 -17 -5z"/>
<path d="M868 2423 c27 -5 30 -23 3 -23 -15 0 -18 -5 -13 -22 5 -19 7 -20 10
-5 2 9 8 17 13 17 5 0 9 -8 10 -17 0 -15 2 -15 8 2 5 11 6 24 3 29 -2 4 2 12
9 17 9 6 0 8 -26 7 -23 0 -30 -3 -17 -5z"/>
<path d="M948 2423 c27 -5 30 -23 3 -23 -15 0 -18 -5 -13 -22 5 -19 7 -20 10
-5 2 10 11 16 20 15 10 -2 16 3 14 11 -2 8 3 18 10 22 8 5 -2 8 -27 7 -23 0
-30 -3 -17 -5z"/>
<path d="M1178 2423 c27 -5 30 -23 3 -23 -15 0 -18 -5 -13 -22 5 -19 7 -20 10
-5 2 10 11 16 20 15 10 -2 16 3 14 11 -2 8 3 18 10 22 8 5 -2 8 -27 7 -23 0
-30 -3 -17 -5z"/>
<path d="M1948 2423 c27 -5 30 -23 3 -23 -15 0 -18 -5 -13 -22 5 -19 7 -20 10
-5 2 9 8 17 13 17 5 0 9 -8 10 -17 0 -15 2 -15 8 2 5 11 6 24 3 29 -2 4 2 12
9 17 9 6 0 8 -26 7 -23 0 -30 -3 -17 -5z"/>
<path d="M2408 2423 c27 -5 30 -23 3 -23 -15 0 -18 -5 -13 -22 5 -19 7 -20 10
-5 2 9 8 17 13 17 5 0 9 -8 10 -17 0 -15 2 -15 8 2 5 11 6 24 3 29 -2 4 2 12
9 17 9 6 0 8 -26 7 -23 0 -30 -3 -17 -5z"/>
<path d="M2718 2423 c27 -5 30 -23 3 -23 -15 0 -18 -5 -13 -22 5 -19 7 -20 10
-5 2 9 8 17 13 17 5 0 9 -8 10 -17 0 -15 2 -15 8 2 5 11 6 24 3 29 -2 4 2 12
9 17 9 6 0 8 -26 7 -23 0 -30 -3 -17 -5z"/>
<path d="M2948 2423 c27 -5 30 -23 3 -23 -15 0 -18 -5 -13 -22 5 -19 7 -20 10
-5 2 9 8 17 13 17 5 0 9 -8 10 -17 0 -15 2 -15 8 2 5 11 6 24 3 29 -2 4 2 12
9 17 9 6 0 8 -26 7 -23 0 -30 -3 -17 -5z"/>
<path d="M1873 2398 c-3 -7 -1 -8 5 -4 8 5 12 0 12 -13 0 -12 7 -21 15 -21 22
0 18 37 -5 43 -11 3 -23 0 -27 -5z"/>
<path d="M510 2253 c0 -7 -8 -13 -18 -13 -13 0 -18 -7 -17 -22 1 -18 7 -22 26
-20 32 5 38 12 11 12 -12 0 -22 5 -22 11 0 6 7 9 15 6 19 -8 26 5 14 23 -6 10
-9 11 -9 3z"/>
<path d="M559 2250 c-1 -8 -1 -19 0 -24 1 -5 -4 -13 -11 -17 -9 -6 -6 -9 10
-9 14 0 22 -6 23 -17 0 -14 2 -15 6 -3 3 8 11 18 17 22 6 5 1 8 -11 8 -13 0
-23 5 -23 10 0 6 9 10 20 10 14 0 18 5 13 16 -5 13 -7 13 -14 2 -7 -11 -11
-10 -19 2 -9 13 -10 13 -11 0z"/>
<path d="M789 2250 c-1 -8 -1 -19 0 -24 1 -5 -4 -13 -11 -17 -9 -6 -6 -9 10
-9 14 0 22 -6 23 -17 0 -14 2 -15 6 -3 3 8 11 18 17 22 6 5 1 8 -11 8 -13 0
-23 5 -23 10 0 6 9 10 20 10 14 0 18 5 13 16 -5 13 -7 13 -14 2 -7 -11 -11
-10 -19 2 -9 13 -10 13 -11 0z"/>
<path d="M1050 2253 c0 -7 -8 -13 -18 -13 -13 0 -18 -7 -17 -22 1 -18 7 -22
26 -20 32 5 38 12 11 12 -12 0 -22 5 -22 11 0 6 7 9 15 6 19 -8 26 5 14 23 -6
10 -9 11 -9 3z"/>
<path d="M1099 2250 c-1 -8 -1 -19 0 -24 1 -5 -4 -13 -11 -17 -9 -6 -6 -9 10
-9 14 0 22 -6 23 -17 0 -14 2 -15 6 -3 3 8 11 18 17 22 6 5 1 8 -11 8 -13 0
-23 5 -23 10 0 6 9 10 20 10 14 0 18 5 13 16 -5 13 -7 13 -14 2 -7 -11 -11
-10 -19 2 -9 13 -10 13 -11 0z"/>
<path d="M1820 2253 c0 -7 -8 -13 -18 -13 -13 0 -18 -7 -17 -22 1 -18 7 -22
26 -20 32 5 38 12 11 12 -12 0 -22 5 -22 11 0 6 7 9 15 6 19 -8 26 5 14 23 -6
10 -9 11 -9 3z"/>
<path d="M1869 2250 c-1 -8 -1 -19 0 -24 1 -5 -4 -13 -11 -17 -9 -6 -7 -9 9
-9 12 0 24 -8 26 -17 4 -17 5 -17 6 0 0 9 7 17 14 17 8 0 7 3 -3 9 -8 6 -18 7
-22 5 -4 -3 -8 0 -8 5 0 6 9 11 20 11 14 0 18 5 13 16 -5 13 -7 13 -14 2 -7
-11 -11 -10 -19 2 -9 13 -10 13 -11 0z"/>
<path d="M2050 2253 c0 -7 -9 -13 -20 -13 -13 0 -18 -5 -14 -15 4 -9 0 -15 -7
-15 -11 0 -11 -2 1 -9 8 -6 18 -7 22 -5 4 3 8 -3 9 -13 0 -14 2 -15 6 -3 3 8
11 18 17 22 6 5 1 8 -11 8 -13 0 -23 5 -23 11 0 6 7 9 15 6 19 -8 26 5 14 23
-6 10 -9 11 -9 3z"/>
<path d="M2510 2250 c0 -5 -8 -10 -19 -10 -15 0 -18 -6 -15 -32 4 -34 14 -52
14 -24 0 11 7 16 18 14 10 -2 16 2 14 11 -2 8 1 17 6 20 6 3 4 12 -4 19 -8 7
-14 8 -14 2z m0 -30 c0 -5 -4 -10 -10 -10 -5 0 -10 5 -10 10 0 6 5 10 10 10 6
0 10 -4 10 -10z"/>
<path d="M2590 2253 c0 -7 -9 -13 -20 -13 -13 0 -18 -5 -14 -15 4 -9 0 -15 -7
-15 -11 0 -11 -2 1 -9 8 -6 18 -7 22 -5 4 3 8 -3 9 -13 0 -14 2 -15 6 -3 3 8
11 18 17 22 6 5 1 8 -11 8 -13 0 -23 5 -23 11 0 6 7 9 15 6 19 -8 26 5 14 23
-6 10 -9 11 -9 3z"/>
<path d="M2639 2250 c-1 -8 -1 -19 0 -24 1 -5 -4 -13 -11 -17 -9 -6 -7 -9 9
-9 12 0 24 -8 26 -17 4 -17 5 -17 6 0 0 9 7 17 14 17 8 0 7 3 -3 9 -8 6 -18 7
-22 5 -4 -3 -8 0 -8 5 0 6 9 11 20 11 14 0 18 5 13 16 -5 13 -7 13 -14 2 -7
-11 -11 -10 -19 2 -9 13 -10 13 -11 0z"/>
<path d="M2820 2253 c0 -7 -9 -13 -20 -13 -13 0 -18 -5 -14 -15 4 -9 0 -15 -7
-15 -11 0 -11 -2 1 -9 8 -6 18 -7 22 -5 4 3 8 -3 9 -13 0 -14 2 -15 6 -3 3 8
11 18 17 22 6 5 1 8 -11 8 -13 0 -23 5 -23 11 0 6 7 9 15 6 19 -8 26 5 14 23
-6 10 -9 11 -9 3z"/>
<path d="M2869 2250 c-1 -8 -1 -19 0 -24 1 -5 -4 -13 -11 -17 -9 -6 -7 -9 9
-9 12 0 24 -8 26 -17 4 -17 5 -17 6 0 0 9 7 17 14 17 8 0 7 3 -3 9 -8 6 -18 7
-22 5 -4 -3 -8 0 -8 5 0 6 9 11 20 11 14 0 18 5 13 16 -5 13 -7 13 -14 2 -7
-11 -11 -10 -19 2 -9 13 -10 13 -11 0z"/>
<path d="M3050 2250 c0 -5 -8 -10 -19 -10 -15 0 -18 -6 -15 -32 4 -34 14 -52
14 -24 0 11 7 16 18 14 10 -2 16 2 14 11 -2 8 1 17 6 20 6 3 4 12 -4 19 -8 7
-14 8 -14 2z m0 -30 c0 -5 -4 -10 -10 -10 -5 0 -10 5 -10 10 0 6 5 10 10 10 6
0 10 -4 10 -10z"/>
<path d="M3130 2253 c0 -7 -9 -13 -20 -13 -13 0 -18 -5 -14 -15 4 -9 0 -15 -7
-15 -11 0 -11 -2 1 -9 8 -6 18 -7 22 -5 4 3 8 -3 9 -13 0 -14 2 -15 6 -3 3 8
11 18 17 22 6 5 1 8 -11 8 -13 0 -23 5 -23 11 0 6 7 9 15 6 19 -8 26 5 14 23
-6 10 -9 11 -9 3z"/>
<path d="M3179 2250 c-1 -8 -1 -19 0 -24 1 -5 -4 -13 -11 -17 -9 -6 -7 -9 9
-9 12 0 24 -8 26 -17 4 -17 5 -17 6 0 0 9 7 17 14 17 8 0 7 3 -3 9 -8 6 -18 7
-22 5 -4 -3 -8 0 -8 5 0 6 9 11 20 11 14 0 18 5 13 16 -5 13 -7 13 -14 2 -7
-11 -11 -10 -19 2 -9 13 -10 13 -11 0z"/>
<path d="M3280 2250 c0 -5 -8 -10 -19 -10 -15 0 -18 -6 -15 -32 4 -34 14 -52
14 -24 0 11 7 16 18 14 10 -2 16 2 14 11 -2 8 1 17 6 20 6 3 4 12 -4 19 -8 7
-14 8 -14 2z m0 -30 c0 -5 -4 -10 -10 -10 -5 0 -10 5 -10 10 0 6 5 10 10 10 6
0 10 -4 10 -10z"/>
<path d="M3360 2253 c0 -7 -9 -13 -20 -13 -13 0 -18 -5 -14 -15 4 -9 0 -15 -7
-15 -11 0 -11 -2 1 -9 8 -6 18 -7 22 -5 4 3 8 -3 9 -13 0 -14 2 -15 6 -3 3 8
11 18 17 22 6 5 1 8 -11 8 -13 0 -23 5 -23 11 0 6 7 9 15 6 19 -8 26 5 14 23
-6 10 -9 11 -9 3z"/>
<path d="M3409 2250 c-1 -8 -1 -19 0 -24 1 -5 -4 -13 -11 -17 -9 -6 -7 -9 9
-9 12 0 24 -8 26 -17 4 -17 5 -17 6 0 0 9 7 17 14 17 8 0 7 3 -3 9 -8 6 -18 7
-22 5 -4 -3 -8 0 -8 5 0 6 9 11 20 11 14 0 18 5 13 16 -5 13 -7 13 -14 2 -7
-11 -11 -10 -19 2 -9 13 -10 13 -11 0z"/>
<path d="M328 2233 c27 -5 30 -23 3 -23 -15 0 -18 -5 -13 -22 5 -19 7 -20 10
-5 2 9 8 17 13 17 5 0 9 -8 10 -17 0 -15 2 -15 8 2 5 11 6 24 3 29 -2 4 2 12
9 17 9 6 0 8 -26 7 -23 0 -30 -3 -17 -5z"/>
<path d="M408 2233 c27 -5 30 -23 3 -23 -15 0 -18 -5 -13 -22 5 -19 7 -20 10
-5 2 10 11 16 20 15 10 -2 16 3 14 11 -2 8 3 18 10 22 8 5 -2 8 -27 7 -23 0
-30 -3 -17 -5z"/>
<path d="M638 2233 c27 -5 30 -23 3 -23 -15 0 -18 -5 -13 -22 5 -19 7 -20 10
-5 2 9 8 17 13 17 5 0 9 -8 10 -17 0 -15 2 -15 8 2 5 11 6 24 3 29 -2 4 2 12
9 17 9 6 0 8 -26 7 -23 0 -30 -3 -17 -5z"/>
<path d="M718 2233 c27 -5 30 -23 3 -23 -15 0 -18 -5 -13 -22 5 -19 7 -20 10
-5 2 10 11 16 20 15 10 -2 16 3 14 11 -2 8 3 18 10 22 8 5 -2 8 -27 7 -23 0
-30 -3 -17 -5z"/>
<path d="M868 2233 c27 -5 30 -23 3 -23 -15 0 -18 -5 -13 -22 5 -19 7 -20 10
-5 2 9 8 17 13 17 5 0 9 -8 10 -17 0 -15 2 -15 8 2 5 11 6 24 3 29 -2 4 2 12
9 17 9 6 0 8 -26 7 -23 0 -30 -3 -17 -5z"/>
<path d="M948 2233 c27 -5 30 -23 3 -23 -15 0 -18 -5 -13 -22 5 -19 7 -20 10
-5 2 10 11 16 20 15 10 -2 16 3 14 11 -2 8 3 18 10 22 8 5 -2 8 -27 7 -23 0
-30 -3 -17 -5z"/>
<path d="M1178 2233 c27 -5 30 -23 3 -23 -15 0 -18 -5 -13 -22 5 -19 7 -20 10
-5 2 10 11 16 20 15 10 -2 16 3 14 11 -2 8 3 18 10 22 8 5 -2 8 -27 7 -23 0
-30 -3 -17 -5z"/>
<path d="M1718 2233 c27 -5 30 -23 3 -23 -15 0 -18 -5 -13 -22 5 -19 7 -20 10
-5 2 10 11 16 20 15 10 -2 16 3 14 11 -2 8 3 18 10 22 8 5 -2 8 -27 7 -23 0
-30 -3 -17 -5z"/>
<path d="M1948 2233 c27 -5 30 -23 3 -23 -15 0 -18 -5 -13 -22 5 -19 7 -20 10
-5 2 9 8 17 13 17 5 0 9 -8 10 -17 0 -15 2 -15 8 2 5 11 6 24 3 29 -2 4 2 12
9 17 9 6 0 8 -26 7 -23 0 -30 -3 -17 -5z"/>
<path d="M2718 2233 c27 -5 30 -23 3 -23 -15 0 -18 -5 -13 -22 5 -19 7 -20 10
-5 2 9 8 17 13 17 5 0 9 -8 10 -17 0 -15 2 -15 8 2 5 11 6 24 3 29 -2 4 2 12
9 17 9 6 0 8 -26 7 -23 0 -30 -3 -17 -5z"/>
<path d="M2948 2233 c27 -5 30 -23 3 -23 -15 0 -18 -5 -13 -22 5 -19 7 -20 10
-5 2 9 8 17 13 17 5 0 9 -8 10 -17 0 -15 2 -15 8 2 5 11 6 24 3 29 -2 4 2 12
9 17 9 6 0 8 -26 7 -23 0 -30 -3 -17 -5z"/>
<path d="M510 2053 c0 -7 -8 -13 -18 -13 -13 0 -18 -7 -17 -22 1 -18 7 -22 26
-20 32 5 38 12 11 12 -12 0 -22 5 -22 11 0 6 7 9 15 6 19 -8 26 5 14 23 -6 10
-9 11 -9 3z"/>
<path d="M559 2050 c-1 -8 -1 -19 0 -24 1 -5 -4 -13 -11 -17 -9 -6 -6 -9 10
-9 14 0 22 -6 23 -17 0 -14 2 -15 6 -3 3 8 11 18 17 22 6 5 1 8 -11 8 -13 0
-23 5 -23 10 0 6 9 10 20 10 14 0 18 5 13 16 -5 13 -7 13 -14 2 -7 -11 -11
-10 -19 2 -9 13 -10 13 -11 0z"/>
<path d="M789 2050 c-1 -8 -1 -19 0 -24 1 -5 -4 -13 -11 -17 -9 -6 -6 -9 10
-9 14 0 22 -6 23 -17 0 -14 2 -15 6 -3 3 8 11 18 17 22 6 5 1 8 -11 8 -13 0
-23 5 -23 10 0 6 9 10 20 10 14 0 18 5 13 16 -5 13 -7 13 -14 2 -7 -11 -11
-10 -19 2 -9 13 -10 13 -11 0z"/>
<path d="M1050 2053 c0 -7 -8 -13 -18 -13 -13 0 -18 -7 -17 -22 1 -18 7 -22
26 -20 32 5 38 12 11 12 -12 0 -22 5 -22 11 0 6 7 9 15 6 19 -8 26 5 14 23 -6
10 -9 11 -9 3z"/>
<path d="M1099 2050 c-1 -8 -1 -19 0 -24 1 -5 -4 -13 -11 -17 -9 -6 -6 -9 10
-9 14 0 22 -6 23 -17 0 -14 2 -15 6 -3 3 8 11 18 17 22 6 5 1 8 -11 8 -13 0
-23 5 -23 10 0 6 9 10 20 10 14 0 18 5 13 16 -5 13 -7 13 -14 2 -7 -11 -11
-10 -19 2 -9 13 -10 13 -11 0z"/>
<path d="M1820 2053 c0 -7 -8 -13 -18 -13 -13 0 -18 -7 -17 -22 1 -18 7 -22
26 -20 32 5 38 12 11 12 -12 0 -22 5 -22 11 0 6 7 9 15 6 19 -8 26 5 14 23 -6
10 -9 11 -9 3z"/>
<path d="M1869 2050 c-1 -8 -1 -19 0 -24 1 -5 -4 -13 -11 -17 -9 -6 -7 -9 9
-9 12 0 24 -8 26 -17 4 -17 5 -17 6 0 0 9 7 17 14 17 8 0 7 3 -3 9 -8 6 -18 7
-22 5 -4 -3 -8 0 -8 5 0 6 9 11 20 11 14 0 18 5 13 16 -5 13 -7 13 -14 2 -7
-11 -11 -10 -19 2 -9 13 -10 13 -11 0z"/>
<path d="M2050 2053 c0 -7 -9 -13 -20 -13 -13 0 -18 -5 -14 -15 4 -9 0 -15 -7
-15 -11 0 -11 -2 1 -9 8 -6 18 -7 22 -5 4 3 8 -3 9 -13 0 -14 2 -15 6 -3 3 8
11 18 17 22 6 5 1 8 -11 8 -13 0 -23 5 -23 11 0 6 7 9 15 6 19 -8 26 5 14 23
-6 10 -9 11 -9 3z"/>
<path d="M2099 2050 c-1 -8 -1 -19 0 -24 1 -5 -4 -13 -11 -17 -9 -6 -7 -9 9
-9 12 0 24 -8 26 -17 4 -17 5 -17 6 0 0 9 7 17 14 17 8 0 7 3 -3 9 -8 6 -18 7
-22 5 -4 -3 -8 0 -8 5 0 6 9 11 20 11 14 0 18 5 13 16 -5 13 -7 13 -14 2 -7
-11 -11 -10 -19 2 -9 13 -10 13 -11 0z"/>
<path d="M2590 2053 c0 -7 -8 -13 -18 -13 -13 0 -18 -7 -17 -22 1 -18 7 -22
26 -20 32 5 38 12 11 12 -12 0 -22 5 -22 11 0 6 7 9 15 6 19 -8 26 5 14 23 -6
10 -9 11 -9 3z"/>
<path d="M2639 2050 c-1 -8 -1 -19 0 -24 1 -5 -4 -13 -11 -17 -9 -6 -7 -9 9
-9 12 0 24 -8 26 -17 4 -17 5 -17 6 0 0 9 7 17 14 17 8 0 7 3 -3 9 -8 6 -18 7
-22 5 -4 -3 -8 0 -8 5 0 6 9 11 20 11 14 0 18 5 13 16 -5 13 -7 13 -14 2 -7
-11 -11 -10 -19 2 -9 13 -10 13 -11 0z"/>
<path d="M2820 2053 c0 -7 -9 -13 -20 -13 -13 0 -18 -5 -14 -15 4 -9 0 -15 -7
-15 -11 0 -11 -2 1 -9 8 -6 18 -7 22 -5 4 3 8 -3 9 -13 0 -14 2 -15 6 -3 3 8
11 18 17 22 6 5 1 8 -11 8 -13 0 -23 5 -23 11 0 6 7 9 15 6 19 -8 26 5 14 23
-6 10 -9 11 -9 3z"/>
<path d="M2869 2050 c-1 -8 -1 -19 0 -24 1 -5 -4 -13 -11 -17 -9 -6 -7 -9 9
-9 12 0 24 -8 26 -17 4 -17 5 -17 6 0 0 9 7 17 14 17 8 0 7 3 -3 9 -8 6 -18 7
-22 5 -4 -3 -8 0 -8 5 0 6 9 11 20 11 14 0 18 5 13 16 -5 13 -7 13 -14 2 -7
-11 -11 -10 -19 2 -9 13 -10 13 -11 0z"/>
<path d="M3050 2050 c0 -5 -8 -10 -19 -10 -15 0 -18 -6 -15 -32 4 -34 14 -52
14 -24 0 11 7 16 18 14 10 -2 16 2 14 11 -2 8 1 17 6 20 6 3 4 12 -4 19 -8 7
-14 8 -14 2z m0 -30 c0 -5 -4 -10 -10 -10 -5 0 -10 5 -10 10 0 6 5 10 10 10 6
0 10 -4 10 -10z"/>
<path d="M3130 2053 c0 -7 -9 -13 -20 -13 -13 0 -18 -5 -14 -15 4 -9 0 -15 -7
-15 -11 0 -11 -2 1 -9 8 -6 18 -7 22 -5 4 3 8 -3 9 -13 0 -14 2 -15 6 -3 3 8
11 18 17 22 6 5 1 8 -11 8 -13 0 -23 5 -23 11 0 6 7 9 15 6 19 -8 26 5 14 23
-6 10 -9 11 -9 3z"/>
<path d="M3179 2050 c-1 -8 -1 -19 0 -24 1 -5 -4 -13 -11 -17 -9 -6 -7 -9 9
-9 12 0 24 -8 26 -17 4 -17 5 -17 6 0 0 9 7 17 14 17 8 0 7 3 -3 9 -8 6 -18 7
-22 5 -4 -3 -8 0 -8 5 0 6 9 11 20 11 14 0 18 5 13 16 -5 13 -7 13 -14 2 -7
-11 -11 -10 -19 2 -9 13 -10 13 -11 0z"/>
<path d="M3280 2050 c0 -5 -8 -10 -19 -10 -15 0 -18 -6 -15 -32 4 -34 14 -52
14 -24 0 11 7 16 18 14 10 -2 16 2 14 11 -2 8 1 17 6 20 6 3 4 12 -4 19 -8 7
-14 8 -14 2z m0 -30 c0 -5 -4 -10 -10 -10 -5 0 -10 5 -10 10 0 6 5 10 10 10 6
0 10 -4 10 -10z"/>
<path d="M3360 2053 c0 -7 -8 -13 -18 -13 -13 0 -18 -7 -17 -22 1 -18 7 -22
26 -20 32 5 38 12 11 12 -12 0 -22 5 -22 11 0 6 7 9 15 6 19 -8 26 5 14 23 -6
10 -9 11 -9 3z"/>
<path d="M328 2033 c27 -5 30 -23 3 -23 -15 0 -18 -5 -13 -22 5 -19 7 -20 10
-5 2 9 8 17 13 17 5 0 9 -8 10 -17 0 -15 2 -15 8 2 5 11 6 24 3 29 -2 4 2 12
9 17 9 6 0 8 -26 7 -23 0 -30 -3 -17 -5z"/>
<path d="M408 2033 c27 -5 30 -23 3 -23 -15 0 -18 -5 -13 -22 5 -19 7 -20 10
-5 2 10 11 16 20 15 10 -2 16 3 14 11 -2 8 3 18 10 22 8 5 -2 8 -27 7 -23 0
-30 -3 -17 -5z"/>
<path d="M638 2033 c27 -5 30 -23 3 -23 -15 0 -18 -5 -13 -22 5 -19 7 -20 10
-5 2 9 8 17 13 17 5 0 9 -8 10 -17 0 -15 2 -15 8 2 5 11 6 24 3 29 -2 4 2 12
9 17 9 6 0 8 -26 7 -23 0 -30 -3 -17 -5z"/>
<path d="M718 2033 c27 -5 30 -23 3 -23 -15 0 -18 -5 -13 -22 5 -19 7 -20 10
-5 2 10 11 16 20 15 10 -2 16 3 14 11 -2 8 3 18 10 22 8 5 -2 8 -27 7 -23 0
-30 -3 -17 -5z"/>
<path d="M868 2033 c27 -5 30 -23 3 -23 -15 0 -18 -5 -13 -22 5 -19 7 -20 10
-5 2 9 8 17 13 17 5 0 9 -8 10 -17 0 -15 2 -15 8 2 5 11 6 24 3 29 -2 4 2 12
9 17 9 6 0 8 -26 7 -23 0 -30 -3 -17 -5z"/>
<path d="M948 2033 c27 -5 30 -23 3 -23 -15 0 -18 -5 -13 -22 5 -19 7 -20 10
-5 2 10 11 16 20 15 10 -2 16 3 14 11 -2 8 3 18 10 22 8 5 -2 8 -27 7 -23 0
-30 -3 -17 -5z"/>
<path d="M1638 2033 c27 -5 30 -23 3 -23 -15 0 -18 -5 -13 -22 5 -19 7 -20 10
-5 2 9 8 17 13 17 5 0 9 -8 10 -17 0 -15 2 -15 8 2 5 11 6 24 3 29 -2 4 2 12
9 17 9 6 0 8 -26 7 -23 0 -30 -3 -17 -5z"/>
<path d="M1718 2033 c27 -5 30 -23 3 -23 -15 0 -18 -5 -13 -22 5 -19 7 -20 10
-5 2 10 11 16 20 15 10 -2 16 3 14 11 -2 8 3 18 10 22 8 5 -2 8 -27 7 -23 0
-30 -3 -17 -5z"/>
<path d="M1948 2033 c27 -5 30 -23 3 -23 -15 0 -18 -5 -13 -22 5 -19 7 -20 10
-5 2 9 8 17 13 17 5 0 9 -8 10 -17 0 -15 2 -15 8 2 5 11 6 24 3 29 -2 4 2 12
9 17 9 6 0 8 -26 7 -23 0 -30 -3 -17 -5z"/>
<path d="M2718 2033 c27 -5 30 -23 3 -23 -15 0 -18 -5 -13 -22 5 -19 7 -20 10
-5 2 9 8 17 13 17 5 0 9 -8 10 -17 0 -15 2 -15 8 2 5 11 6 24 3 29 -2 4 2 12
9 17 9 6 0 8 -26 7 -23 0 -30 -3 -17 -5z"/>
<path d="M2948 2033 c27 -5 30 -23 3 -23 -15 0 -18 -5 -13 -22 5 -19 7 -20 10
-5 2 9 8 17 13 17 5 0 9 -8 10 -17 0 -15 2 -15 8 2 5 11 6 24 3 29 -2 4 2 12
9 17 9 6 0 8 -26 7 -23 0 -30 -3 -17 -5z"/>
<path d="M510 1863 c0 -7 -8 -13 -18 -13 -13 0 -18 -7 -17 -22 1 -18 7 -22 26
-20 32 5 38 12 11 12 -12 0 -22 5 -22 11 0 6 7 9 15 6 19 -8 26 5 14 23 -6 10
-9 11 -9 3z"/>
<path d="M559 1860 c-1 -8 -1 -19 0 -24 1 -5 -4 -13 -11 -17 -9 -6 -6 -9 10
-9 14 0 22 -6 23 -17 0 -14 2 -15 6 -3 3 8 11 18 17 22 6 5 1 8 -11 8 -13 0
-23 5 -23 10 0 6 9 10 20 10 14 0 18 5 13 16 -5 13 -7 13 -14 2 -7 -11 -11
-10 -19 2 -9 13 -10 13 -11 0z"/>
<path d="M789 1860 c-1 -8 -1 -19 0 -24 1 -5 -4 -13 -11 -17 -9 -6 -6 -9 10
-9 14 0 22 -6 23 -17 0 -14 2 -15 6 -3 3 8 11 18 17 22 6 5 1 8 -11 8 -13 0
-23 5 -23 10 0 6 9 10 20 10 14 0 18 5 13 16 -5 13 -7 13 -14 2 -7 -11 -11
-10 -19 2 -9 13 -10 13 -11 0z"/>
<path d="M1050 1863 c0 -7 -8 -13 -18 -13 -13 0 -18 -7 -17 -22 1 -18 7 -22
26 -20 32 5 38 12 11 12 -12 0 -22 5 -22 11 0 6 7 9 15 6 19 -8 26 5 14 23 -6
10 -9 11 -9 3z"/>
<path d="M2820 1863 c0 -7 -9 -13 -20 -13 -13 0 -18 -5 -14 -15 4 -9 0 -15 -7
-15 -11 0 -11 -2 1 -9 8 -6 18 -7 22 -5 4 3 8 -3 9 -13 0 -14 2 -15 6 -3 3 8
11 18 17 22 6 5 1 8 -11 8 -13 0 -23 5 -23 11 0 6 7 9 15 6 19 -8 26 5 14 23
-6 10 -9 11 -9 3z"/>
<path d="M2869 1860 c-1 -8 -1 -19 0 -24 1 -5 -4 -13 -11 -17 -9 -6 -7 -9 9
-9 12 0 24 -8 26 -17 4 -17 5 -17 6 0 0 9 7 17 14 17 8 0 7 3 -3 9 -8 6 -18 7
-22 5 -4 -3 -8 0 -8 5 0 6 9 11 20 11 14 0 18 5 13 16 -5 13 -7 13 -14 2 -7
-11 -11 -10 -19 2 -9 13 -10 13 -11 0z"/>
<path d="M3050 1860 c0 -5 -8 -10 -19 -10 -15 0 -18 -6 -15 -32 4 -34 14 -52
14 -24 0 11 7 16 18 14 10 -2 16 2 14 11 -2 8 1 17 6 20 6 3 4 12 -4 19 -8 7
-14 8 -14 2z m0 -30 c0 -5 -4 -10 -10 -10 -5 0 -10 5 -10 10 0 6 5 10 10 10 6
0 10 -4 10 -10z"/>
<path d="M3130 1863 c0 -7 -9 -13 -20 -13 -13 0 -18 -5 -14 -15 4 -9 0 -15 -7
-15 -11 0 -11 -2 1 -9 8 -6 18 -7 22 -5 4 3 8 -3 9 -13 0 -14 2 -15 6 -3 3 8
11 18 17 22 6 5 1 8 -11 8 -13 0 -23 5 -23 11 0 6 7 9 15 6 19 -8 26 5 14 23
-6 10 -9 11 -9 3z"/>
<path d="M3179 1860 c-1 -8 -1 -19 0 -24 1 -5 -4 -13 -11 -17 -9 -6 -7 -9 9
-9 12 0 24 -8 26 -17 4 -17 5 -17 6 0 0 9 7 17 14 17 8 0 7 3 -3 9 -8 6 -18 7
-22 5 -4 -3 -8 0 -8 5 0 6 9 11 20 11 14 0 18 5 13 16 -5 13 -7 13 -14 2 -7
-11 -11 -10 -19 2 -9 13 -10 13 -11 0z"/>
<path d="M3280 1860 c0 -5 -8 -10 -19 -10 -15 0 -18 -6 -15 -32 4 -34 14 -52
14 -24 0 11 7 16 18 14 10 -2 16 2 14 11 -2 8 1 17 6 20 6 3 4 12 -4 19 -8 7
-14 8 -14 2z m0 -30 c0 -5 -4 -10 -10 -10 -5 0 -10 5 -10 10 0 6 5 10 10 10 6
0 10 -4 10 -10z"/>
<path d="M3360 1863 c0 -7 -8 -13 -18 -13 -13 0 -18 -7 -17 -22 1 -18 7 -22
26 -20 32 5 38 12 11 12 -12 0 -22 5 -22 11 0 6 7 9 15 6 19 -8 26 5 14 23 -6
10 -9 11 -9 3z"/>
<path d="M408 1843 c27 -5 30 -23 3 -23 -15 0 -18 -5 -13 -22 5 -19 7 -20 10
-5 2 10 11 16 20 15 10 -2 16 3 14 11 -2 8 3 18 10 22 8 5 -2 8 -27 7 -23 0
-30 -3 -17 -5z"/>
<path d="M638 1843 c27 -5 30 -23 3 -23 -15 0 -18 -5 -13 -22 5 -19 7 -20 10
-5 2 9 8 17 13 17 5 0 9 -8 10 -17 0 -15 2 -15 8 2 5 11 6 24 3 29 -2 4 2 12
9 17 9 6 0 8 -26 7 -23 0 -30 -3 -17 -5z"/>
<path d="M718 1843 c27 -5 30 -23 3 -23 -15 0 -18 -5 -13 -22 5 -19 7 -20 10
-5 2 10 11 16 20 15 10 -2 16 3 14 11 -2 8 3 18 10 22 8 5 -2 8 -27 7 -23 0
-30 -3 -17 -5z"/>
<path d="M868 1843 c27 -5 30 -23 3 -23 -15 0 -18 -5 -13 -22 5 -19 7 -20 10
-5 2 9 8 17 13 17 5 0 9 -8 10 -17 0 -15 2 -15 8 2 5 11 6 24 3 29 -2 4 2 12
9 17 9 6 0 8 -26 7 -23 0 -30 -3 -17 -5z"/>
<path d="M948 1843 c27 -5 30 -23 3 -23 -15 0 -18 -5 -13 -22 5 -19 7 -20 10
-5 2 10 11 16 20 15 10 -2 16 3 14 11 -2 8 3 18 10 22 8 5 -2 8 -27 7 -23 0
-30 -3 -17 -5z"/>
<path d="M2718 1843 c27 -5 30 -23 3 -23 -15 0 -18 -5 -13 -22 5 -19 7 -20 10
-5 2 9 8 17 13 17 5 0 9 -8 10 -17 0 -15 2 -15 8 2 5 11 6 24 3 29 -2 4 2 12
9 17 9 6 0 8 -26 7 -23 0 -30 -3 -17 -5z"/>
<path d="M2948 1843 c27 -5 30 -23 3 -23 -15 0 -18 -5 -13 -22 5 -19 7 -20 10
-5 2 9 8 17 13 17 5 0 9 -8 10 -17 0 -15 2 -15 8 2 5 11 6 24 3 29 -2 4 2 12
9 17 9 6 0 8 -26 7 -23 0 -30 -3 -17 -5z"/>
<path d="M2641 1814 c0 -11 3 -14 6 -6 3 7 2 16 -1 19 -3 4 -6 -2 -5 -13z"/>
<path d="M510 1663 c0 -7 -8 -13 -18 -13 -13 0 -18 -7 -17 -22 1 -18 7 -22 26
-20 32 5 38 12 11 12 -12 0 -22 5 -22 11 0 6 7 9 15 6 19 -8 26 5 14 23 -6 10
-9 11 -9 3z"/>
<path d="M559 1660 c-1 -8 -1 -19 0 -24 1 -5 -4 -13 -11 -17 -9 -6 -6 -9 10
-9 14 0 22 -6 23 -17 0 -14 2 -15 6 -3 3 8 11 18 17 22 6 5 1 8 -11 8 -13 0
-23 5 -23 10 0 6 9 10 20 10 14 0 18 5 13 16 -5 13 -7 13 -14 2 -7 -11 -11
-10 -19 2 -9 13 -10 13 -11 0z"/>
<path d="M789 1660 c-1 -8 -1 -19 0 -24 1 -5 -4 -13 -11 -17 -9 -6 -6 -9 10
-9 14 0 22 -6 23 -17 0 -14 2 -15 6 -3 3 8 11 18 17 22 6 5 1 8 -11 8 -13 0
-23 5 -23 10 0 6 9 10 20 10 14 0 18 5 13 16 -5 13 -7 13 -14 2 -7 -11 -11
-10 -19 2 -9 13 -10 13 -11 0z"/>
<path d="M2820 1663 c0 -7 -8 -13 -18 -13 -13 0 -18 -7 -17 -22 1 -18 7 -22
26 -20 32 5 38 12 11 12 -12 0 -22 5 -22 11 0 6 7 9 15 6 19 -8 26 5 14 23 -6
10 -9 11 -9 3z"/>
<path d="M2869 1660 c-1 -8 -1 -19 0 -24 1 -5 -4 -13 -11 -17 -9 -6 -6 -9 10
-9 14 0 22 -6 23 -17 0 -14 2 -15 6 -3 3 8 11 18 17 22 6 5 1 8 -11 8 -13 0
-23 5 -23 10 0 6 9 10 20 10 14 0 18 5 13 16 -5 13 -7 13 -14 2 -7 -11 -11
-10 -19 2 -9 13 -10 13 -11 0z"/>
<path d="M3050 1660 c0 -5 -8 -10 -19 -10 -15 0 -18 -6 -15 -32 4 -34 14 -52
14 -24 0 11 7 16 18 14 10 -2 16 2 14 11 -2 8 1 17 6 20 6 3 4 12 -4 19 -8 7
-14 8 -14 2z m0 -30 c0 -5 -4 -10 -10 -10 -5 0 -10 5 -10 10 0 6 5 10 10 10 6
0 10 -4 10 -10z"/>
<path d="M3130 1663 c0 -7 -9 -13 -20 -13 -13 0 -18 -5 -14 -15 4 -9 0 -15 -7
-15 -11 0 -11 -2 1 -9 8 -6 18 -7 22 -5 4 3 8 -3 9 -13 0 -14 2 -15 6 -3 3 8
11 18 17 22 6 5 1 8 -11 8 -13 0 -23 5 -23 11 0 6 7 9 15 6 19 -8 26 5 14 23
-6 10 -9 11 -9 3z"/>
<path d="M3179 1660 c-1 -8 -1 -19 0 -24 1 -5 -4 -13 -11 -17 -9 -6 -7 -9 9
-9 12 0 24 -8 26 -17 4 -17 5 -17 6 0 0 9 7 17 14 17 8 0 7 3 -3 9 -8 6 -18 7
-22 5 -4 -3 -8 0 -8 5 0 6 9 11 20 11 14 0 18 5 13 16 -5 13 -7 13 -14 2 -7
-11 -11 -10 -19 2 -9 13 -10 13 -11 0z"/>
<path d="M3280 1660 c0 -5 -8 -10 -19 -10 -15 0 -18 -6 -15 -32 4 -34 14 -52
14 -24 0 11 7 16 18 14 10 -2 16 2 14 11 -2 8 1 17 6 20 6 3 4 12 -4 19 -8 7
-14 8 -14 2z m0 -30 c0 -5 -4 -10 -10 -10 -5 0 -10 5 -10 10 0 6 5 10 10 10 6
0 10 -4 10 -10z"/>
<path d="M3360 1663 c0 -7 -8 -13 -18 -13 -13 0 -18 -7 -17 -22 1 -18 7 -22
26 -20 32 5 38 12 11 12 -12 0 -22 5 -22 11 0 6 7 9 15 6 19 -8 26 5 14 23 -6
10 -9 11 -9 3z"/>
<path d="M408 1643 c27 -5 30 -23 3 -23 -15 0 -18 -5 -13 -22 5 -19 7 -20 10
-5 2 10 11 16 20 15 10 -2 16 3 14 11 -2 8 3 18 10 22 8 5 -2 8 -27 7 -23 0
-30 -3 -17 -5z"/>
<path d="M638 1643 c27 -5 30 -23 3 -23 -15 0 -18 -5 -13 -22 5 -19 7 -20 10
-5 2 9 8 17 13 17 5 0 9 -8 10 -17 0 -15 2 -15 8 2 5 11 6 24 3 29 -2 4 2 12
9 17 9 6 0 8 -26 7 -23 0 -30 -3 -17 -5z"/>
<path d="M718 1643 c27 -5 30 -23 3 -23 -15 0 -18 -5 -13 -22 5 -19 7 -20 10
-5 2 10 11 16 20 15 10 -2 16 3 14 11 -2 8 3 18 10 22 8 5 -2 8 -27 7 -23 0
-30 -3 -17 -5z"/>
<path d="M868 1643 c27 -5 30 -23 3 -23 -15 0 -18 -5 -13 -22 5 -19 7 -20 10
-5 2 9 8 17 13 17 5 0 9 -8 10 -17 0 -15 2 -15 8 2 5 11 6 24 3 29 -2 4 2 12
9 17 9 6 0 8 -26 7 -23 0 -30 -3 -17 -5z"/>
<path d="M948 1643 c27 -5 30 -23 3 -23 -15 0 -18 -5 -13 -22 5 -19 7 -20 10
-5 2 10 11 16 20 15 10 -2 16 3 14 11 -2 8 3 18 10 22 8 5 -2 8 -27 7 -23 0
-30 -3 -17 -5z"/>
<path d="M2948 1643 c27 -5 30 -23 3 -23 -15 0 -18 -5 -13 -22 5 -19 7 -20 10
-5 2 9 8 17 13 17 5 0 9 -8 10 -17 0 -15 2 -15 8 2 5 11 6 24 3 29 -2 4 2 12
9 17 9 6 0 8 -26 7 -23 0 -30 -3 -17 -5z"/>
<path d="M510 1463 c0 -7 -8 -13 -18 -13 -13 0 -18 -7 -17 -22 1 -18 7 -22 26
-20 32 5 38 12 11 12 -12 0 -22 5 -22 11 0 6 7 9 15 6 19 -8 26 5 14 23 -6 10
-9 11 -9 3z"/>
<path d="M559 1460 c-1 -8 -1 -19 0 -24 1 -5 -4 -13 -11 -17 -9 -6 -6 -9 10
-9 14 0 22 -6 23 -17 0 -14 2 -15 6 -3 3 8 11 18 17 22 6 5 1 8 -11 8 -13 0
-23 5 -23 10 0 6 9 10 20 10 14 0 18 5 13 16 -5 13 -7 13 -14 2 -7 -11 -11
-10 -19 2 -9 13 -10 13 -11 0z"/>
<path d="M789 1460 c-1 -8 -1 -19 0 -24 1 -5 -4 -13 -11 -17 -9 -6 -6 -9 10
-9 14 0 22 -6 23 -17 0 -14 2 -15 6 -3 3 8 11 18 17 22 6 5 1 8 -11 8 -13 0
-23 5 -23 10 0 6 9 10 20 10 14 0 18 5 13 16 -5 13 -7 13 -14 2 -7 -11 -11
-10 -19 2 -9 13 -10 13 -11 0z"/>
<path d="M1329 1460 c-1 -8 -1 -19 0 -24 1 -5 -4 -13 -11 -17 -9 -6 -6 -9 10
-9 14 0 22 -6 23 -17 0 -14 2 -15 6 -3 3 8 11 18 17 22 6 5 1 8 -11 8 -13 0
-23 5 -23 10 0 6 9 10 20 10 14 0 18 5 13 16 -5 13 -7 13 -14 2 -7 -11 -11
-10 -19 2 -9 13 -10 13 -11 0z"/>
<path d="M1559 1460 c-1 -8 -1 -19 0 -24 1 -5 -4 -13 -11 -17 -9 -6 -6 -9 10
-9 14 0 22 -6 23 -17 0 -14 2 -15 6 -3 3 8 11 18 17 22 6 5 1 8 -11 8 -13 0
-23 5 -23 10 0 6 9 10 20 10 14 0 18 5 13 16 -5 13 -7 13 -14 2 -7 -11 -11
-10 -19 2 -9 13 -10 13 -11 0z"/>
<path d="M1820 1463 c0 -7 -8 -13 -18 -13 -13 0 -18 -7 -17 -22 1 -18 7 -22
26 -20 32 5 38 12 11 12 -12 0 -22 5 -22 11 0 6 7 9 15 6 19 -8 26 5 14 23 -6
10 -9 11 -9 3z"/>
<path d="M1869 1460 c-1 -8 -1 -19 0 -24 1 -5 -4 -13 -11 -17 -9 -6 -7 -9 9
-9 12 0 24 -8 26 -17 4 -17 5 -17 6 0 0 9 7 17 14 17 8 0 7 3 -3 9 -8 6 -18 7
-22 5 -4 -3 -8 0 -8 5 0 6 9 11 20 11 14 0 18 5 13 16 -5 13 -7 13 -14 2 -7
-11 -11 -10 -19 2 -9 13 -10 13 -11 0z"/>
<path d="M2050 1463 c0 -7 -9 -13 -20 -13 -13 0 -18 -5 -14 -15 4 -9 0 -15 -7
-15 -11 0 -11 -2 1 -9 8 -6 18 -7 22 -5 4 3 8 -3 9 -13 0 -14 2 -15 6 -3 3 8
11 18 17 22 6 5 1 8 -11 8 -13 0 -23 5 -23 11 0 6 7 9 15 6 19 -8 26 5 14 23
-6 10 -9 11 -9 3z"/>
<path d="M2099 1460 c-1 -8 -1 -19 0 -24 1 -5 -4 -13 -11 -17 -9 -6 -7 -9 9
-9 12 0 24 -8 26 -17 4 -17 5 -17 6 0 0 9 7 17 14 17 8 0 7 3 -3 9 -8 6 -18 7
-22 5 -4 -3 -8 0 -8 5 0 6 9 11 20 11 14 0 18 5 13 16 -5 13 -7 13 -14 2 -7
-11 -11 -10 -19 2 -9 13 -10 13 -11 0z"/>
<path d="M2280 1460 c0 -5 -8 -10 -19 -10 -15 0 -18 -6 -15 -32 4 -34 14 -52
14 -24 0 11 7 16 18 14 10 -2 16 2 14 11 -2 8 1 17 6 20 6 3 4 12 -4 19 -8 7
-14 8 -14 2z m0 -30 c0 -5 -4 -10 -10 -10 -5 0 -10 5 -10 10 0 6 5 10 10 10 6
0 10 -4 10 -10z"/>
<path d="M2360 1463 c0 -7 -9 -13 -20 -13 -13 0 -18 -5 -14 -15 4 -9 0 -15 -7
-15 -11 0 -11 -2 1 -9 8 -6 18 -7 22 -5 4 3 8 -3 9 -13 0 -14 2 -15 6 -3 3 8
11 18 17 22 6 5 1 8 -11 8 -13 0 -23 5 -23 11 0 6 7 9 15 6 19 -8 26 5 14 23
-6 10 -9 11 -9 3z"/>
<path d="M2869 1460 c-1 -8 -1 -19 0 -24 1 -5 -4 -13 -11 -17 -9 -6 -7 -9 9
-9 12 0 24 -8 26 -17 4 -17 5 -17 6 0 0 9 7 17 14 17 8 0 7 3 -3 9 -8 6 -18 7
-22 5 -4 -3 -8 0 -8 5 0 6 9 11 20 11 14 0 18 5 13 16 -5 13 -7 13 -14 2 -7
-11 -11 -10 -19 2 -9 13 -10 13 -11 0z"/>
<path d="M3050 1460 c0 -5 -8 -10 -19 -10 -15 0 -18 -6 -15 -32 4 -34 14 -52
14 -24 0 11 7 16 18 14 10 -2 16 2 14 11 -2 8 1 17 6 20 6 3 4 12 -4 19 -8 7
-14 8 -14 2z m0 -30 c0 -5 -4 -10 -10 -10 -5 0 -10 5 -10 10 0 6 5 10 10 10 6
0 10 -4 10 -10z"/>
<path d="M3130 1463 c0 -7 -9 -13 -20 -13 -13 0 -18 -5 -14 -15 4 -9 0 -15 -7
-15 -11 0 -11 -2 1 -9 8 -6 18 -7 22 -5 4 3 8 -3 9 -13 0 -14 2 -15 6 -3 3 8
11 18 17 22 6 5 1 8 -11 8 -13 0 -23 5 -23 11 0 6 7 9 15 6 19 -8 26 5 14 23
-6 10 -9 11 -9 3z"/>
<path d="M3179 1460 c-1 -8 -1 -19 0 -24 1 -5 -4 -13 -11 -17 -9 -6 -7 -9 9
-9 12 0 24 -8 26 -17 4 -17 5 -17 6 0 0 9 7 17 14 17 8 0 7 3 -3 9 -8 6 -18 7
-22 5 -4 -3 -8 0 -8 5 0 6 9 11 20 11 14 0 18 5 13 16 -5 13 -7 13 -14 2 -7
-11 -11 -10 -19 2 -9 13 -10 13 -11 0z"/>
<path d="M3280 1460 c0 -5 -8 -10 -19 -10 -15 0 -18 -6 -15 -32 4 -34 14 -52
14 -24 0 11 7 16 18 14 10 -2 16 2 14 11 -2 8 1 17 6 20 6 3 4 12 -4 19 -8 7
-14 8 -14 2z m0 -30 c0 -5 -4 -10 -10 -10 -5 0 -10 5 -10 10 0 6 5 10 10 10 6
0 10 -4 10 -10z"/>
<path d="M408 1443 c27 -5 30 -23 3 -23 -15 0 -18 -5 -13 -22 5 -19 7 -20 10
-5 2 10 11 16 20 15 10 -2 16 3 14 11 -2 8 3 18 10 22 8 5 -2 8 -27 7 -23 0
-30 -3 -17 -5z"/>
<path d="M638 1443 c27 -5 30 -23 3 -23 -15 0 -18 -5 -13 -22 5 -19 7 -20 10
-5 2 9 8 17 13 17 5 0 9 -8 10 -17 0 -15 2 -15 8 2 5 11 6 24 3 29 -2 4 2 12
9 17 9 6 0 8 -26 7 -23 0 -30 -3 -17 -5z"/>
<path d="M718 1443 c27 -5 30 -23 3 -23 -15 0 -18 -5 -13 -22 5 -19 7 -20 10
-5 2 10 11 16 20 15 10 -2 16 3 14 11 -2 8 3 18 10 22 8 5 -2 8 -27 7 -23 0
-30 -3 -17 -5z"/>
<path d="M868 1443 c27 -5 30 -23 3 -23 -15 0 -18 -5 -13 -22 5 -19 7 -20 10
-5 2 9 8 17 13 17 5 0 9 -8 10 -17 0 -15 2 -15 8 2 5 11 6 24 3 29 -2 4 2 12
9 17 9 6 0 8 -26 7 -23 0 -30 -3 -17 -5z"/>
<path d="M1408 1443 c27 -5 30 -23 3 -23 -15 0 -18 -5 -13 -22 5 -19 7 -20 10
-5 2 9 8 17 13 17 5 0 9 -8 10 -17 0 -15 2 -15 8 2 5 11 6 24 3 29 -2 4 2 12
9 17 9 6 0 8 -26 7 -23 0 -30 -3 -17 -5z"/>
<path d="M1488 1443 c27 -5 30 -23 3 -23 -15 0 -18 -5 -13 -22 5 -19 7 -20 10
-5 2 10 11 16 20 15 10 -2 16 3 14 11 -2 8 3 18 10 22 8 5 -2 8 -27 7 -23 0
-30 -3 -17 -5z"/>
<path d="M1638 1443 c27 -5 30 -23 3 -23 -15 0 -18 -5 -13 -22 5 -19 7 -20 10
-5 2 9 8 17 13 17 5 0 9 -8 10 -17 0 -15 2 -15 8 2 5 11 6 24 3 29 -2 4 2 12
9 17 9 6 0 8 -26 7 -23 0 -30 -3 -17 -5z"/>
<path d="M1718 1443 c27 -5 30 -23 3 -23 -15 0 -18 -5 -13 -22 5 -19 7 -20 10
-5 2 10 11 16 20 15 10 -2 16 3 14 11 -2 8 3 18 10 22 8 5 -2 8 -27 7 -23 0
-30 -3 -17 -5z"/>
<path d="M1948 1443 c27 -5 30 -23 3 -23 -15 0 -18 -5 -13 -22 5 -19 7 -20 10
-5 2 9 8 17 13 17 5 0 9 -8 10 -17 0 -15 2 -15 8 2 5 11 6 24 3 29 -2 4 2 12
9 17 9 6 0 8 -26 7 -23 0 -30 -3 -17 -5z"/>
<path d="M2178 1443 c27 -5 30 -23 3 -23 -15 0 -18 -5 -13 -22 5 -19 7 -20 10
-5 2 9 8 17 13 17 5 0 9 -8 10 -17 0 -15 2 -15 8 2 5 11 6 24 3 29 -2 4 2 12
9 17 9 6 0 8 -26 7 -23 0 -30 -3 -17 -5z"/>
<path d="M2408 1443 c27 -5 30 -23 3 -23 -15 0 -18 -5 -13 -22 5 -19 7 -20 10
-5 2 9 8 17 13 17 5 0 9 -8 10 -17 0 -15 2 -15 8 2 5 11 6 24 3 29 -2 4 2 12
9 17 9 6 0 8 -26 7 -23 0 -30 -3 -17 -5z"/>
<path d="M2948 1443 c27 -5 30 -23 3 -23 -15 0 -18 -5 -13 -22 5 -19 7 -20 10
-5 2 9 8 17 13 17 5 0 9 -8 10 -17 0 -15 2 -15 8 2 5 11 6 24 3 29 -2 4 2 12
9 17 9 6 0 8 -26 7 -23 0 -30 -3 -17 -5z"/>
<path d="M420 1269 c-7 -11 -10 -23 -7 -25 2 -2 9 7 15 21 14 30 7 33 -8 4z"/>
<path d="M510 1273 c0 -7 -8 -13 -18 -13 -13 0 -18 -7 -17 -22 1 -18 7 -22 26
-20 32 5 38 12 11 12 -12 0 -22 5 -22 11 0 6 7 9 15 6 19 -8 26 5 14 23 -6 10
-9 11 -9 3z"/>
<path d="M559 1270 c-1 -8 -1 -19 0 -24 1 -5 -4 -13 -11 -17 -9 -6 -6 -9 10
-9 14 0 22 -6 23 -17 0 -14 2 -15 6 -3 3 8 11 18 17 22 6 5 1 8 -11 8 -13 0
-23 5 -23 10 0 6 9 10 20 10 14 0 18 5 13 16 -5 13 -7 13 -14 2 -7 -11 -11
-10 -19 2 -9 13 -10 13 -11 0z"/>
<path d="M789 1270 c-1 -8 -1 -19 0 -24 1 -5 -4 -13 -11 -17 -9 -6 -6 -9 10
-9 14 0 22 -6 23 -17 0 -14 2 -15 6 -3 3 8 11 18 17 22 6 5 1 8 -11 8 -13 0
-23 5 -23 10 0 6 9 10 20 10 14 0 18 5 13 16 -5 13 -7 13 -14 2 -7 -11 -11
-10 -19 2 -9 13 -10 13 -11 0z"/>
<path d="M1280 1273 c0 -7 -8 -13 -18 -13 -13 0 -18 -7 -17 -22 1 -18 7 -22
26 -20 32 5 38 12 11 12 -12 0 -22 5 -22 11 0 6 7 9 15 6 19 -8 26 5 14 23 -6
10 -9 11 -9 3z"/>
<path d="M1329 1270 c-1 -8 -1 -19 0 -24 1 -5 -4 -13 -11 -17 -9 -6 -6 -9 10
-9 14 0 22 -6 23 -17 0 -14 2 -15 6 -3 3 8 11 18 17 22 6 5 1 8 -11 8 -13 0
-23 5 -23 10 0 6 9 10 20 10 14 0 18 5 13 16 -5 13 -7 13 -14 2 -7 -11 -11
-10 -19 2 -9 13 -10 13 -11 0z"/>
<path d="M1559 1270 c-1 -8 -1 -19 0 -24 1 -5 -4 -13 -11 -17 -9 -6 -6 -9 10
-9 14 0 22 -6 23 -17 0 -14 2 -15 6 -3 3 8 11 18 17 22 6 5 1 8 -11 8 -13 0
-23 5 -23 10 0 6 9 10 20 10 14 0 18 5 13 16 -5 13 -7 13 -14 2 -7 -11 -11
-10 -19 2 -9 13 -10 13 -11 0z"/>
<path d="M1820 1273 c0 -7 -8 -13 -18 -13 -13 0 -18 -7 -17 -22 1 -18 7 -22
26 -20 32 5 38 12 11 12 -12 0 -22 5 -22 11 0 6 7 9 15 6 19 -8 26 5 14 23 -6
10 -9 11 -9 3z"/>
<path d="M1869 1270 c-1 -8 -1 -19 0 -24 1 -5 -4 -13 -11 -17 -9 -6 -7 -9 9
-9 12 0 24 -8 26 -17 4 -17 5 -17 6 0 0 9 7 17 14 17 8 0 7 3 -3 9 -8 6 -18 7
-22 5 -4 -3 -8 0 -8 5 0 6 9 11 20 11 14 0 18 5 13 16 -5 13 -7 13 -14 2 -7
-11 -11 -10 -19 2 -9 13 -10 13 -11 0z"/>
<path d="M2050 1273 c0 -7 -9 -13 -20 -13 -13 0 -18 -5 -14 -15 4 -9 0 -15 -7
-15 -11 0 -11 -2 1 -9 8 -6 18 -7 22 -5 4 3 8 -3 9 -13 0 -14 2 -15 6 -3 3 8
11 18 17 22 6 5 1 8 -11 8 -13 0 -23 5 -23 11 0 6 7 9 15 6 19 -8 26 5 14 23
-6 10 -9 11 -9 3z"/>
<path d="M2099 1270 c-1 -8 -1 -19 0 -24 1 -5 -4 -13 -11 -17 -9 -6 -7 -9 9
-9 12 0 24 -8 26 -17 4 -17 5 -17 6 0 0 9 7 17 14 17 8 0 7 3 -3 9 -8 6 -18 7
-22 5 -4 -3 -8 0 -8 5 0 6 9 11 20 11 14 0 18 5 13 16 -5 13 -7 13 -14 2 -7
-11 -11 -10 -19 2 -9 13 -10 13 -11 0z"/>
<path d="M2280 1270 c0 -5 -8 -10 -19 -10 -15 0 -18 -6 -15 -32 4 -34 14 -52
14 -24 0 11 7 16 18 14 10 -2 16 2 14 11 -2 8 1 17 6 20 6 3 4 12 -4 19 -8 7
-14 8 -14 2z m0 -30 c0 -5 -4 -10 -10 -10 -5 0 -10 5 -10 10 0 6 5 10 10 10 6
0 10 -4 10 -10z"/>
<path d="M2360 1273 c0 -7 -9 -13 -20 -13 -13 0 -18 -5 -14 -15 4 -9 0 -15 -7
-15 -11 0 -11 -2 1 -9 8 -6 18 -7 22 -5 4 3 8 -3 9 -13 0 -14 2 -15 6 -3 3 8
11 18 17 22 6 5 1 8 -11 8 -13 0 -23 5 -23 11 0 6 7 9 15 6 19 -8 26 5 14 23
-6 10 -9 11 -9 3z"/>
<path d="M2510 1270 c0 -5 -8 -10 -19 -10 -15 0 -18 -6 -15 -32 4 -34 14 -52
14 -24 0 11 7 16 18 14 10 -2 16 2 14 11 -2 8 1 17 6 20 6 3 4 12 -4 19 -8 7
-14 8 -14 2z m0 -30 c0 -5 -4 -10 -10 -10 -5 0 -10 5 -10 10 0 6 5 10 10 10 6
0 10 -4 10 -10z"/>
<path d="M3050 1270 c0 -5 -8 -10 -19 -10 -15 0 -18 -6 -15 -32 4 -34 14 -52
14 -24 0 11 7 16 18 14 10 -2 16 2 14 11 -2 8 1 17 6 20 6 3 4 12 -4 19 -8 7
-14 8 -14 2z m0 -30 c0 -5 -4 -10 -10 -10 -5 0 -10 5 -10 10 0 6 5 10 10 10 6
0 10 -4 10 -10z"/>
<path d="M3130 1273 c0 -7 -9 -13 -20 -13 -13 0 -18 -5 -14 -15 4 -9 0 -15 -7
-15 -11 0 -11 -2 1 -9 8 -6 18 -7 22 -5 4 3 8 -3 9 -13 0 -14 2 -15 6 -3 3 8
11 18 17 22 6 5 1 8 -11 8 -13 0 -23 5 -23 11 0 6 7 9 15 6 19 -8 26 5 14 23
-6 10 -9 11 -9 3z"/>
<path d="M3179 1270 c-1 -8 -1 -19 0 -24 1 -5 -4 -13 -11 -17 -9 -6 -7 -9 9
-9 12 0 24 -8 26 -17 4 -17 5 -17 6 0 0 9 7 17 14 17 8 0 7 3 -3 9 -8 6 -18 7
-22 5 -4 -3 -8 0 -8 5 0 6 9 11 20 11 14 0 18 5 13 16 -5 13 -7 13 -14 2 -7
-11 -11 -10 -19 2 -9 13 -10 13 -11 0z"/>
<path d="M3280 1270 c0 -5 -8 -10 -19 -10 -15 0 -18 -6 -15 -32 4 -34 14 -52
14 -24 0 11 7 16 18 14 10 -2 16 2 14 11 -2 8 1 17 6 20 6 3 4 12 -4 19 -8 7
-14 8 -14 2z m0 -30 c0 -5 -4 -10 -10 -10 -5 0 -10 5 -10 10 0 6 5 10 10 10 6
0 10 -4 10 -10z"/>
<path d="M638 1253 c27 -5 30 -23 3 -23 -15 0 -18 -5 -13 -22 5 -19 7 -20 10
-5 2 9 8 17 13 17 5 0 9 -8 10 -17 0 -15 2 -15 8 2 5 11 6 24 3 29 -2 4 2 12
9 17 9 6 0 8 -26 7 -23 0 -30 -3 -17 -5z"/>
<path d="M718 1253 c27 -5 30 -23 3 -23 -15 0 -18 -5 -13 -22 5 -19 7 -20 10
-5 2 10 11 16 20 15 10 -2 16 3 14 11 -2 8 3 18 10 22 8 5 -2 8 -27 7 -23 0
-30 -3 -17 -5z"/>
<path d="M1408 1253 c27 -5 30 -23 3 -23 -15 0 -18 -5 -13 -22 5 -19 7 -20 10
-5 2 9 8 17 13 17 5 0 9 -8 10 -17 0 -15 2 -15 8 2 5 11 6 24 3 29 -2 4 2 12
9 17 9 6 0 8 -26 7 -23 0 -30 -3 -17 -5z"/>
<path d="M1488 1253 c27 -5 30 -23 3 -23 -15 0 -18 -5 -13 -22 5 -19 7 -20 10
-5 2 10 11 16 20 15 10 -2 16 3 14 11 -2 8 3 18 10 22 8 5 -2 8 -27 7 -23 0
-30 -3 -17 -5z"/>
<path d="M1638 1253 c27 -5 30 -23 3 -23 -15 0 -18 -5 -13 -22 5 -19 7 -20 10
-5 2 9 8 17 13 17 5 0 9 -8 10 -17 0 -15 2 -15 8 2 5 11 6 24 3 29 -2 4 2 12
9 17 9 6 0 8 -26 7 -23 0 -30 -3 -17 -5z"/>
<path d="M1718 1253 c27 -5 30 -23 3 -23 -15 0 -18 -5 -13 -22 5 -19 7 -20 10
-5 2 10 11 16 20 15 10 -2 16 3 14 11 -2 8 3 18 10 22 8 5 -2 8 -27 7 -23 0
-30 -3 -17 -5z"/>
<path d="M1948 1253 c27 -5 30 -23 3 -23 -15 0 -18 -5 -13 -22 5 -19 7 -20 10
-5 2 9 8 17 13 17 5 0 9 -8 10 -17 0 -15 2 -15 8 2 5 11 6 24 3 29 -2 4 2 12
9 17 9 6 0 8 -26 7 -23 0 -30 -3 -17 -5z"/>
<path d="M2178 1253 c27 -5 30 -23 3 -23 -15 0 -18 -5 -13 -22 5 -19 7 -20 10
-5 2 9 8 17 13 17 5 0 9 -8 10 -17 0 -15 2 -15 8 2 5 11 6 24 3 29 -2 4 2 12
9 17 9 6 0 8 -26 7 -23 0 -30 -3 -17 -5z"/>
<path d="M2408 1253 c27 -5 30 -23 3 -23 -15 0 -18 -5 -13 -22 5 -19 7 -20 10
-5 2 9 8 17 13 17 5 0 9 -8 10 -17 0 -15 2 -15 8 2 5 11 6 24 3 29 -2 4 2 12
9 17 9 6 0 8 -26 7 -23 0 -30 -3 -17 -5z"/>
<path d="M2948 1253 c27 -5 30 -23 3 -23 -15 0 -18 -5 -13 -22 5 -19 7 -20 10
-5 2 9 8 17 13 17 5 0 9 -8 10 -17 0 -15 2 -15 8 2 5 11 6 24 3 29 -2 4 2 12
9 17 9 6 0 8 -26 7 -23 0 -30 -3 -17 -5z"/>
<path d="M410 1204 c0 -6 7 -19 16 -30 14 -18 14 -18 3 6 -14 31 -19 36 -19
24z"/>
<path d="M510 1073 c0 -7 -8 -13 -18 -13 -13 0 -18 -7 -17 -22 1 -18 7 -22 26
-20 32 5 38 12 11 12 -12 0 -22 5 -22 11 0 6 7 9 15 6 19 -8 26 5 14 23 -6 10
-9 11 -9 3z"/>
<path d="M559 1070 c-1 -8 -1 -19 0 -24 1 -5 -4 -13 -11 -17 -9 -6 -6 -9 10
-9 14 0 22 -6 23 -17 0 -14 2 -15 6 -3 3 8 11 18 17 22 6 5 1 8 -11 8 -13 0
-23 5 -23 10 0 6 9 10 20 10 14 0 18 5 13 16 -5 13 -7 13 -14 2 -7 -11 -11
-10 -19 2 -9 13 -10 13 -11 0z"/>
<path d="M1280 1073 c0 -7 -8 -13 -18 -13 -13 0 -18 -7 -17 -22 1 -18 7 -22
26 -20 32 5 38 12 11 12 -12 0 -22 5 -22 11 0 6 7 9 15 6 19 -8 26 5 14 23 -6
10 -9 11 -9 3z"/>
<path d="M1329 1070 c-1 -8 -1 -19 0 -24 1 -5 -4 -13 -11 -17 -9 -6 -6 -9 10
-9 14 0 22 -6 23 -17 0 -14 2 -15 6 -3 3 8 11 18 17 22 6 5 1 8 -11 8 -13 0
-23 5 -23 10 0 6 9 10 20 10 14 0 18 5 13 16 -5 13 -7 13 -14 2 -7 -11 -11
-10 -19 2 -9 13 -10 13 -11 0z"/>
<path d="M1559 1070 c-1 -8 -1 -19 0 -24 1 -5 -4 -13 -11 -17 -9 -6 -6 -9 10
-9 14 0 22 -6 23 -17 0 -14 2 -15 6 -3 3 8 11 18 17 22 6 5 1 8 -11 8 -13 0
-23 5 -23 10 0 6 9 10 20 10 14 0 18 5 13 16 -5 13 -7 13 -14 2 -7 -11 -11
-10 -19 2 -9 13 -10 13 -11 0z"/>
<path d="M1820 1073 c0 -7 -8 -13 -18 -13 -13 0 -18 -7 -17 -22 1 -18 7 -22
26 -20 32 5 38 12 11 12 -12 0 -22 5 -22 11 0 6 7 9 15 6 19 -8 26 5 14 23 -6
10 -9 11 -9 3z"/>
<path d="M1869 1070 c-1 -8 -1 -19 0 -24 1 -5 -4 -13 -11 -17 -9 -6 -7 -9 9
-9 12 0 24 -8 26 -17 4 -17 5 -17 6 0 0 9 7 17 14 17 8 0 7 3 -3 9 -8 6 -18 7
-22 5 -4 -3 -8 0 -8 5 0 6 9 11 20 11 14 0 18 5 13 16 -5 13 -7 13 -14 2 -7
-11 -11 -10 -19 2 -9 13 -10 13 -11 0z"/>
<path d="M2050 1073 c0 -7 -9 -13 -20 -13 -13 0 -18 -5 -14 -15 4 -9 0 -15 -7
-15 -11 0 -11 -2 1 -9 8 -6 18 -7 22 -5 4 3 8 -3 9 -13 0 -14 2 -15 6 -3 3 8
11 18 17 22 6 5 1 8 -11 8 -13 0 -23 5 -23 11 0 6 7 9 15 6 19 -8 26 5 14 23
-6 10 -9 11 -9 3z"/>
<path d="M2099 1070 c-1 -8 -1 -19 0 -24 1 -5 -4 -13 -11 -17 -9 -6 -7 -9 9
-9 12 0 24 -8 26 -17 4 -17 5 -17 6 0 0 9 7 17 14 17 8 0 7 3 -3 9 -8 6 -18 7
-22 5 -4 -3 -8 0 -8 5 0 6 9 11 20 11 14 0 18 5 13 16 -5 13 -7 13 -14 2 -7
-11 -11 -10 -19 2 -9 13 -10 13 -11 0z"/>
<path d="M2280 1070 c0 -5 -8 -10 -19 -10 -15 0 -18 -6 -15 -32 4 -34 14 -52
14 -24 0 11 7 16 18 14 10 -2 16 2 14 11 -2 8 1 17 6 20 6 3 4 12 -4 19 -8 7
-14 8 -14 2z m0 -30 c0 -5 -4 -10 -10 -10 -5 0 -10 5 -10 10 0 6 5 10 10 10 6
0 10 -4 10 -10z"/>
<path d="M2360 1073 c0 -7 -9 -13 -20 -13 -13 0 -18 -5 -14 -15 4 -9 0 -15 -7
-15 -11 0 -11 -2 1 -9 8 -6 18 -7 22 -5 4 3 8 -3 9 -13 0 -14 2 -15 6 -3 3 8
11 18 17 22 6 5 1 8 -11 8 -13 0 -23 5 -23 11 0 6 7 9 15 6 19 -8 26 5 14 23
-6 10 -9 11 -9 3z"/>
<path d="M2510 1070 c0 -5 -8 -10 -19 -10 -15 0 -18 -6 -15 -32 4 -34 14 -52
14 -24 0 11 7 16 18 14 10 -2 16 2 14 11 -2 8 1 17 6 20 6 3 4 12 -4 19 -8 7
-14 8 -14 2z m0 -30 c0 -5 -4 -10 -10 -10 -5 0 -10 5 -10 10 0 6 5 10 10 10 6
0 10 -4 10 -10z"/>
<path d="M2590 1073 c0 -7 -9 -13 -20 -13 -13 0 -18 -5 -14 -15 4 -9 0 -15 -7
-15 -11 0 -11 -2 1 -9 8 -6 18 -7 22 -5 4 3 8 -3 9 -13 0 -14 2 -15 6 -3 3 8
11 18 17 22 6 5 1 8 -11 8 -13 0 -23 5 -23 11 0 6 7 9 15 6 19 -8 26 5 14 23
-6 10 -9 11 -9 3z"/>
<path d="M3130 1073 c0 -7 -9 -13 -20 -13 -13 0 -18 -5 -14 -15 4 -9 0 -15 -7
-15 -11 0 -11 -2 1 -9 8 -6 18 -7 22 -5 4 3 8 -3 9 -13 0 -14 2 -15 6 -3 3 8
11 18 17 22 6 5 1 8 -11 8 -13 0 -23 5 -23 11 0 6 7 9 15 6 19 -8 26 5 14 23
-6 10 -9 11 -9 3z"/>
<path d="M3179 1070 c-1 -8 -1 -19 0 -24 1 -5 -4 -13 -11 -17 -9 -6 -7 -9 9
-9 12 0 24 -8 26 -17 4 -17 5 -17 6 0 0 9 7 17 14 17 8 0 7 3 -3 9 -8 6 -18 7
-22 5 -4 -3 -8 0 -8 5 0 6 9 11 20 11 14 0 18 5 13 16 -5 13 -7 13 -14 2 -7
-11 -11 -10 -19 2 -9 13 -10 13 -11 0z"/>
<path d="M3280 1070 c0 -5 -8 -10 -19 -10 -15 0 -18 -6 -15 -32 4 -34 14 -52
14 -24 0 11 7 16 18 14 10 -2 16 2 14 11 -2 8 1 17 6 20 6 3 4 12 -4 19 -8 7
-14 8 -14 2z m0 -30 c0 -5 -4 -10 -10 -10 -5 0 -10 5 -10 10 0 6 5 10 10 10 6
0 10 -4 10 -10z"/>
<path d="M638 1053 c27 -5 30 -23 3 -23 -15 0 -18 -5 -13 -22 5 -19 7 -20 10
-5 2 9 8 17 13 17 5 0 9 -8 10 -17 0 -15 2 -15 8 2 5 11 6 24 3 29 -2 4 2 12
9 17 9 6 0 8 -26 7 -23 0 -30 -3 -17 -5z"/>
<path d="M1178 1053 c27 -5 30 -23 3 -23 -15 0 -18 -5 -13 -22 5 -19 7 -20 10
-5 2 10 11 16 20 15 10 -2 16 3 14 11 -2 8 3 18 10 22 8 5 -2 8 -27 7 -23 0
-30 -3 -17 -5z"/>
<path d="M1408 1053 c27 -5 30 -23 3 -23 -15 0 -18 -5 -13 -22 5 -19 7 -20 10
-5 2 9 8 17 13 17 5 0 9 -8 10 -17 0 -15 2 -15 8 2 5 11 6 24 3 29 -2 4 2 12
9 17 9 6 0 8 -26 7 -23 0 -30 -3 -17 -5z"/>
<path d="M1488 1053 c27 -5 30 -23 3 -23 -15 0 -18 -5 -13 -22 5 -19 7 -20 10
-5 2 10 11 16 20 15 10 -2 16 3 14 11 -2 8 3 18 10 22 8 5 -2 8 -27 7 -23 0
-30 -3 -17 -5z"/>
<path d="M1638 1053 c27 -5 30 -23 3 -23 -15 0 -18 -5 -13 -22 5 -19 7 -20 10
-5 2 9 8 17 13 17 5 0 9 -8 10 -17 0 -15 2 -15 8 2 5 11 6 24 3 29 -2 4 2 12
9 17 9 6 0 8 -26 7 -23 0 -30 -3 -17 -5z"/>
<path d="M1718 1053 c27 -5 30 -23 3 -23 -15 0 -18 -5 -13 -22 5 -19 7 -20 10
-5 2 10 11 16 20 15 10 -2 16 3 14 11 -2 8 3 18 10 22 8 5 -2 8 -27 7 -23 0
-30 -3 -17 -5z"/>
<path d="M1948 1053 c27 -5 30 -23 3 -23 -15 0 -18 -5 -13 -22 5 -19 7 -20 10
-5 2 9 8 17 13 17 5 0 9 -8 10 -17 0 -15 2 -15 8 2 5 11 6 24 3 29 -2 4 2 12
9 17 9 6 0 8 -26 7 -23 0 -30 -3 -17 -5z"/>
<path d="M2178 1053 c27 -5 30 -23 3 -23 -15 0 -18 -5 -13 -22 5 -19 7 -20 10
-5 2 9 8 17 13 17 5 0 9 -8 10 -17 0 -15 2 -15 8 2 5 11 6 24 3 29 -2 4 2 12
9 17 9 6 0 8 -26 7 -23 0 -30 -3 -17 -5z"/>
<path d="M2408 1053 c27 -5 30 -23 3 -23 -15 0 -18 -5 -13 -22 5 -19 7 -20 10
-5 2 9 8 17 13 17 5 0 9 -8 10 -17 0 -15 2 -15 8 2 5 11 6 24 3 29 -2 4 2 12
9 17 9 6 0 8 -26 7 -23 0 -30 -3 -17 -5z"/>
<path d="M3028 1053 c27 -5 30 -23 3 -23 -15 0 -18 -5 -13 -22 5 -19 7 -20 10
-5 2 10 11 16 20 15 10 -2 16 3 14 11 -2 8 3 18 10 22 8 5 -2 8 -27 7 -23 0
-30 -3 -17 -5z"/>
<path d="M559 880 c-1 -8 -1 -19 0 -24 1 -5 -4 -13 -11 -17 -9 -6 -6 -9 10 -9
14 0 22 -6 23 -17 0 -14 2 -15 6 -3 3 8 11 18 17 22 6 5 1 8 -11 8 -13 0 -23
5 -23 10 0 6 9 10 20 10 14 0 18 5 13 16 -5 13 -7 13 -14 2 -7 -11 -11 -10
-19 2 -9 13 -10 13 -11 0z"/>
<path d="M789 880 c-1 -8 -1 -19 0 -24 1 -5 -4 -13 -11 -17 -9 -6 -6 -9 10 -9
14 0 22 -6 23 -17 0 -14 2 -15 6 -3 3 8 11 18 17 22 6 5 1 8 -11 8 -13 0 -23
5 -23 10 0 6 9 10 20 10 14 0 18 5 13 16 -5 13 -7 13 -14 2 -7 -11 -11 -10
-19 2 -9 13 -10 13 -11 0z"/>
<path d="M1050 883 c0 -7 -8 -13 -18 -13 -13 0 -18 -7 -17 -22 1 -18 7 -22 26
-20 32 5 38 12 11 12 -12 0 -22 5 -22 11 0 6 7 9 15 6 19 -8 26 5 14 23 -6 10
-9 11 -9 3z"/>
<path d="M1099 880 c-1 -8 -1 -19 0 -24 1 -5 -4 -13 -11 -17 -9 -6 -6 -9 10
-9 14 0 22 -6 23 -17 0 -14 2 -15 6 -3 3 8 11 18 17 22 6 5 1 8 -11 8 -13 0
-23 5 -23 10 0 6 9 10 20 10 14 0 18 5 13 16 -5 13 -7 13 -14 2 -7 -11 -11
-10 -19 2 -9 13 -10 13 -11 0z"/>
<path d="M1280 883 c0 -7 -8 -13 -18 -13 -13 0 -18 -7 -17 -22 1 -18 7 -22 26
-20 32 5 38 12 11 12 -12 0 -22 5 -22 11 0 6 7 9 15 6 19 -8 26 5 14 23 -6 10
-9 11 -9 3z"/>
<path d="M1329 880 c-1 -8 -1 -19 0 -24 1 -5 -4 -13 -11 -17 -9 -6 -6 -9 10
-9 14 0 22 -6 23 -17 0 -14 2 -15 6 -3 3 8 11 18 17 22 6 5 1 8 -11 8 -13 0
-23 5 -23 10 0 6 9 10 20 10 14 0 18 5 13 16 -5 13 -7 13 -14 2 -7 -11 -11
-10 -19 2 -9 13 -10 13 -11 0z"/>
<path d="M1559 880 c-1 -8 -1 -19 0 -24 1 -5 -4 -13 -11 -17 -9 -6 -6 -9 10
-9 14 0 22 -6 23 -17 0 -14 2 -15 6 -3 3 8 11 18 17 22 6 5 1 8 -11 8 -13 0
-23 5 -23 10 0 6 9 10 20 10 14 0 18 5 13 16 -5 13 -7 13 -14 2 -7 -11 -11
-10 -19 2 -9 13 -10 13 -11 0z"/>
<path d="M1820 883 c0 -7 -8 -13 -18 -13 -13 0 -18 -7 -17 -22 1 -18 7 -22 26
-20 32 5 38 12 11 12 -12 0 -22 5 -22 11 0 6 7 9 15 6 19 -8 26 5 14 23 -6 10
-9 11 -9 3z"/>
<path d="M1869 880 c-1 -8 -1 -19 0 -24 1 -5 -4 -13 -11 -17 -9 -6 -7 -9 9 -9
12 0 24 -8 26 -17 4 -17 5 -17 6 0 0 9 7 17 14 17 8 0 7 3 -3 9 -8 6 -18 7
-22 5 -4 -3 -8 0 -8 5 0 6 9 11 20 11 14 0 18 5 13 16 -5 13 -7 13 -14 2 -7
-11 -11 -10 -19 2 -9 13 -10 13 -11 0z"/>
<path d="M2050 883 c0 -7 -9 -13 -20 -13 -13 0 -18 -5 -14 -15 4 -9 0 -15 -7
-15 -11 0 -11 -2 1 -9 8 -6 18 -7 22 -5 4 3 8 -3 9 -13 0 -14 2 -15 6 -3 3 8
11 18 17 22 6 5 1 8 -11 8 -13 0 -23 5 -23 11 0 6 7 9 15 6 19 -8 26 5 14 23
-6 10 -9 11 -9 3z"/>
<path d="M2099 880 c-1 -8 -1 -19 0 -24 1 -5 -4 -13 -11 -17 -9 -6 -7 -9 9 -9
12 0 24 -8 26 -17 4 -17 5 -17 6 0 0 9 7 17 14 17 8 0 7 3 -3 9 -8 6 -18 7
-22 5 -4 -3 -8 0 -8 5 0 6 9 11 20 11 14 0 18 5 13 16 -5 13 -7 13 -14 2 -7
-11 -11 -10 -19 2 -9 13 -10 13 -11 0z"/>
<path d="M2280 880 c0 -5 -8 -10 -19 -10 -15 0 -18 -6 -15 -32 4 -34 14 -52
14 -24 0 11 7 16 18 14 10 -2 16 2 14 11 -2 8 1 17 6 20 6 3 4 12 -4 19 -8 7
-14 8 -14 2z m0 -30 c0 -5 -4 -10 -10 -10 -5 0 -10 5 -10 10 0 6 5 10 10 10 6
0 10 -4 10 -10z"/>
<path d="M2360 883 c0 -7 -9 -13 -20 -13 -13 0 -18 -5 -14 -15 4 -9 0 -15 -7
-15 -11 0 -11 -2 1 -9 8 -6 18 -7 22 -5 4 3 8 -3 9 -13 0 -14 2 -15 6 -3 3 8
11 18 17 22 6 5 1 8 -11 8 -13 0 -23 5 -23 11 0 6 7 9 15 6 19 -8 26 5 14 23
-6 10 -9 11 -9 3z"/>
<path d="M2510 880 c0 -5 -8 -10 -19 -10 -15 0 -18 -6 -15 -32 4 -34 14 -52
14 -24 0 11 7 16 18 14 10 -2 16 2 14 11 -2 8 1 17 6 20 6 3 4 12 -4 19 -8 7
-14 8 -14 2z m0 -30 c0 -5 -4 -10 -10 -10 -5 0 -10 5 -10 10 0 6 5 10 10 10 6
0 10 -4 10 -10z"/>
<path d="M2590 883 c0 -7 -9 -13 -20 -13 -13 0 -18 -5 -14 -15 4 -9 0 -15 -7
-15 -11 0 -11 -2 1 -9 8 -6 18 -7 22 -5 4 3 8 -3 9 -13 0 -14 2 -15 6 -3 3 8
11 18 17 22 6 5 1 8 -11 8 -13 0 -23 5 -23 11 0 6 7 9 15 6 19 -8 26 5 14 23
-6 10 -9 11 -9 3z"/>
<path d="M2639 880 c-1 -8 -1 -19 0 -24 1 -5 -4 -13 -11 -17 -9 -6 -7 -9 9 -9
12 0 24 -8 26 -17 4 -17 5 -17 6 0 0 9 7 17 14 17 8 0 7 3 -3 9 -8 6 -18 7
-22 5 -4 -3 -8 0 -8 5 0 6 9 11 20 11 14 0 18 5 13 16 -5 13 -7 13 -14 2 -7
-11 -11 -10 -19 2 -9 13 -10 13 -11 0z"/>
<path d="M2820 883 c0 -7 -9 -13 -20 -13 -13 0 -18 -5 -14 -15 4 -9 0 -15 -7
-15 -11 0 -11 -2 1 -9 8 -6 18 -7 22 -5 4 3 8 -3 9 -13 0 -14 2 -15 6 -3 3 8
11 18 17 22 6 5 1 8 -11 8 -13 0 -23 5 -23 11 0 6 7 9 15 6 19 -8 26 5 14 23
-6 10 -9 11 -9 3z"/>
<path d="M2869 880 c-1 -8 -1 -19 0 -24 1 -5 -4 -13 -11 -17 -9 -6 -7 -9 9 -9
12 0 24 -8 26 -17 4 -17 5 -17 6 0 0 9 7 17 14 17 8 0 7 3 -3 9 -8 6 -18 7
-22 5 -4 -3 -8 0 -8 5 0 6 9 11 20 11 14 0 18 5 13 16 -5 13 -7 13 -14 2 -7
-11 -11 -10 -19 2 -9 13 -10 13 -11 0z"/>
<path d="M3130 883 c0 -7 -8 -13 -18 -13 -13 0 -18 -7 -17 -22 1 -18 7 -22 26
-20 32 5 38 12 11 12 -12 0 -22 5 -22 11 0 6 7 9 15 6 19 -8 26 5 14 23 -6 10
-9 11 -9 3z"/>
<path d="M638 863 c27 -5 30 -23 3 -23 -15 0 -18 -5 -13 -22 5 -19 7 -20 10
-5 2 9 8 17 13 17 5 0 9 -8 10 -17 0 -15 2 -15 8 2 5 11 6 24 3 29 -2 4 2 12
9 17 9 6 0 8 -26 7 -23 0 -30 -3 -17 -5z"/>
<path d="M718 863 c27 -5 30 -23 3 -23 -15 0 -18 -5 -13 -22 5 -19 7 -20 10
-5 2 10 11 16 20 15 10 -2 16 3 14 11 -2 8 3 18 10 22 8 5 -2 8 -27 7 -23 0
-30 -3 -17 -5z"/>
<path d="M868 863 c27 -5 30 -23 3 -23 -15 0 -18 -5 -13 -22 5 -19 7 -20 10
-5 2 9 8 17 13 17 5 0 9 -8 10 -17 0 -15 2 -15 8 2 5 11 6 24 3 29 -2 4 2 12
9 17 9 6 0 8 -26 7 -23 0 -30 -3 -17 -5z"/>
<path d="M948 863 c27 -5 30 -23 3 -23 -15 0 -18 -5 -13 -22 5 -19 7 -20 10
-5 2 10 11 16 20 15 10 -2 16 3 14 11 -2 8 3 18 10 22 8 5 -2 8 -27 7 -23 0
-30 -3 -17 -5z"/>
<path d="M1178 863 c27 -5 30 -23 3 -23 -15 0 -18 -5 -13 -22 5 -19 7 -20 10
-5 2 10 11 16 20 15 10 -2 16 3 14 11 -2 8 3 18 10 22 8 5 -2 8 -27 7 -23 0
-30 -3 -17 -5z"/>
<path d="M1408 863 c27 -5 30 -23 3 -23 -15 0 -18 -5 -13 -22 5 -19 7 -20 10
-5 2 9 8 17 13 17 5 0 9 -8 10 -17 0 -15 2 -15 8 2 5 11 6 24 3 29 -2 4 2 12
9 17 9 6 0 8 -26 7 -23 0 -30 -3 -17 -5z"/>
<path d="M1488 863 c27 -5 30 -23 3 -23 -15 0 -18 -5 -13 -22 5 -19 7 -20 10
-5 2 10 11 16 20 15 10 -2 16 3 14 11 -2 8 3 18 10 22 8 5 -2 8 -27 7 -23 0
-30 -3 -17 -5z"/>
<path d="M1638 863 c27 -5 30 -23 3 -23 -15 0 -18 -5 -13 -22 5 -19 7 -20 10
-5 2 9 8 17 13 17 5 0 9 -8 10 -17 0 -15 2 -15 8 2 5 11 6 24 3 29 -2 4 2 12
9 17 9 6 0 8 -26 7 -23 0 -30 -3 -17 -5z"/>
<path d="M1718 863 c27 -5 30 -23 3 -23 -15 0 -18 -5 -13 -22 5 -19 7 -20 10
-5 2 10 11 16 20 15 10 -2 16 3 14 11 -2 8 3 18 10 22 8 5 -2 8 -27 7 -23 0
-30 -3 -17 -5z"/>
<path d="M1948 863 c27 -5 30 -23 3 -23 -15 0 -18 -5 -13 -22 5 -19 7 -20 10
-5 2 9 8 17 13 17 5 0 9 -8 10 -17 0 -15 2 -15 8 2 5 11 6 24 3 29 -2 4 2 12
9 17 9 6 0 8 -26 7 -23 0 -30 -3 -17 -5z"/>
<path d="M2178 863 c27 -5 30 -23 3 -23 -15 0 -18 -5 -13 -22 5 -19 7 -20 10
-5 2 9 8 17 13 17 5 0 9 -8 10 -17 0 -15 2 -15 8 2 5 11 6 24 3 29 -2 4 2 12
9 17 9 6 0 8 -26 7 -23 0 -30 -3 -17 -5z"/>
<path d="M2408 863 c27 -5 30 -23 3 -23 -15 0 -18 -5 -13 -22 5 -19 7 -20 10
-5 2 9 8 17 13 17 5 0 9 -8 10 -17 0 -15 2 -15 8 2 5 11 6 24 3 29 -2 4 2 12
9 17 9 6 0 8 -26 7 -23 0 -30 -3 -17 -5z"/>
<path d="M2718 863 c27 -5 30 -23 3 -23 -15 0 -18 -5 -13 -22 5 -19 7 -20 10
-5 2 9 8 17 13 17 5 0 9 -8 10 -17 0 -15 2 -15 8 2 5 11 6 24 3 29 -2 4 2 12
9 17 9 6 0 8 -26 7 -23 0 -30 -3 -17 -5z"/>
<path d="M2948 863 c27 -5 30 -23 3 -23 -15 0 -18 -5 -13 -22 5 -19 7 -20 10
-5 2 9 8 17 13 17 5 0 9 -8 10 -17 0 -15 2 -15 8 2 5 11 6 24 3 29 -2 4 2 12
9 17 9 6 0 8 -26 7 -23 0 -30 -3 -17 -5z"/>
<path d="M3028 863 c27 -5 30 -23 3 -23 -15 0 -18 -5 -13 -22 5 -19 7 -20 10
-5 2 10 11 16 20 15 10 -2 16 3 14 11 -2 8 3 18 10 22 8 5 -2 8 -27 7 -23 0
-30 -3 -17 -5z"/>
<path d="M1050 683 c0 -7 -8 -13 -18 -13 -13 0 -18 -7 -17 -22 1 -18 7 -22 26
-20 32 5 38 12 11 12 -12 0 -22 5 -22 11 0 6 7 9 15 6 19 -8 26 5 14 23 -6 10
-9 11 -9 3z"/>
<path d="M1099 680 c-1 -8 -1 -19 0 -24 1 -5 -4 -13 -11 -17 -9 -6 -6 -9 10
-9 14 0 22 -6 23 -17 0 -14 2 -15 6 -3 3 8 11 18 17 22 6 5 1 8 -11 8 -13 0
-23 5 -23 10 0 6 9 10 20 10 14 0 18 5 13 16 -5 13 -7 13 -14 2 -7 -11 -11
-10 -19 2 -9 13 -10 13 -11 0z"/>
<path d="M1280 683 c0 -7 -8 -13 -18 -13 -13 0 -18 -7 -17 -22 1 -18 7 -22 26
-20 32 5 38 12 11 12 -12 0 -22 5 -22 11 0 6 7 9 15 6 19 -8 26 5 14 23 -6 10
-9 11 -9 3z"/>
<path d="M1329 680 c-1 -8 -1 -19 0 -24 1 -5 -4 -13 -11 -17 -9 -6 -6 -9 10
-9 14 0 22 -6 23 -17 0 -14 2 -15 6 -3 3 8 11 18 17 22 6 5 1 8 -11 8 -13 0
-23 5 -23 10 0 6 9 10 20 10 14 0 18 5 13 16 -5 13 -7 13 -14 2 -7 -11 -11
-10 -19 2 -9 13 -10 13 -11 0z"/>
<path d="M1559 680 c-1 -8 -1 -19 0 -24 1 -5 -4 -13 -11 -17 -9 -6 -6 -9 10
-9 14 0 22 -6 23 -17 0 -14 2 -15 6 -3 3 8 11 18 17 22 6 5 1 8 -11 8 -13 0
-23 5 -23 10 0 6 9 10 20 10 14 0 18 5 13 16 -5 13 -7 13 -14 2 -7 -11 -11
-10 -19 2 -9 13 -10 13 -11 0z"/>
<path d="M1820 683 c0 -7 -8 -13 -18 -13 -13 0 -18 -7 -17 -22 1 -18 7 -22 26
-20 32 5 38 12 11 12 -12 0 -22 5 -22 11 0 6 7 9 15 6 19 -8 26 5 14 23 -6 10
-9 11 -9 3z"/>
<path d="M1869 680 c-1 -8 -1 -19 0 -24 1 -5 -4 -13 -11 -17 -9 -6 -7 -9 9 -9
12 0 24 -8 26 -17 4 -17 5 -17 6 0 0 9 7 17 14 17 8 0 7 3 -3 9 -8 6 -18 7
-22 5 -4 -3 -8 0 -8 5 0 6 9 11 20 11 14 0 18 5 13 16 -5 13 -7 13 -14 2 -7
-11 -11 -10 -19 2 -9 13 -10 13 -11 0z"/>
<path d="M2050 683 c0 -7 -9 -13 -20 -13 -13 0 -18 -5 -14 -15 4 -9 0 -15 -7
-15 -11 0 -11 -2 1 -9 8 -6 18 -7 22 -5 4 3 8 -3 9 -13 0 -14 2 -15 6 -3 3 8
11 18 17 22 6 5 1 8 -11 8 -13 0 -23 5 -23 11 0 6 7 9 15 6 19 -8 26 5 14 23
-6 10 -9 11 -9 3z"/>
<path d="M2099 680 c-1 -8 -1 -19 0 -24 1 -5 -4 -13 -11 -17 -9 -6 -7 -9 9 -9
12 0 24 -8 26 -17 4 -17 5 -17 6 0 0 9 7 17 14 17 8 0 7 3 -3 9 -8 6 -18 7
-22 5 -4 -3 -8 0 -8 5 0 6 9 11 20 11 14 0 18 5 13 16 -5 13 -7 13 -14 2 -7
-11 -11 -10 -19 2 -9 13 -10 13 -11 0z"/>
<path d="M2280 680 c0 -5 -8 -10 -19 -10 -15 0 -18 -6 -15 -32 4 -34 14 -52
14 -24 0 11 7 16 18 14 10 -2 16 2 14 11 -2 8 1 17 6 20 6 3 4 12 -4 19 -8 7
-14 8 -14 2z m0 -30 c0 -5 -4 -10 -10 -10 -5 0 -10 5 -10 10 0 6 5 10 10 10 6
0 10 -4 10 -10z"/>
<path d="M2360 683 c0 -7 -9 -13 -20 -13 -13 0 -18 -5 -14 -15 4 -9 0 -15 -7
-15 -11 0 -11 -2 1 -9 8 -6 18 -7 22 -5 4 3 8 -3 9 -13 0 -14 2 -15 6 -3 3 8
11 18 17 22 6 5 1 8 -11 8 -13 0 -23 5 -23 11 0 6 7 9 15 6 19 -8 26 5 14 23
-6 10 -9 11 -9 3z"/>
<path d="M2510 680 c0 -5 -8 -10 -19 -10 -15 0 -18 -6 -15 -32 4 -34 14 -52
14 -24 0 11 7 16 18 14 10 -2 16 2 14 11 -2 8 1 17 6 20 6 3 4 12 -4 19 -8 7
-14 8 -14 2z m0 -30 c0 -5 -4 -10 -10 -10 -5 0 -10 5 -10 10 0 6 5 10 10 10 6
0 10 -4 10 -10z"/>
<path d="M2590 683 c0 -7 -9 -13 -20 -13 -13 0 -18 -5 -14 -15 4 -9 0 -15 -7
-15 -11 0 -11 -2 1 -9 8 -6 18 -7 22 -5 4 3 8 -3 9 -13 0 -14 2 -15 6 -3 3 8
11 18 17 22 6 5 1 8 -11 8 -13 0 -23 5 -23 11 0 6 7 9 15 6 19 -8 26 5 14 23
-6 10 -9 11 -9 3z"/>
<path d="M2639 680 c-1 -8 -1 -19 0 -24 1 -5 -4 -13 -11 -17 -9 -6 -6 -9 10
-9 14 0 22 -6 23 -17 0 -14 2 -15 6 -3 3 8 11 18 17 22 6 5 1 8 -11 8 -13 0
-23 5 -23 10 0 6 9 10 20 10 14 0 18 5 13 16 -5 13 -7 13 -14 2 -7 -11 -11
-10 -19 2 -9 13 -10 13 -11 0z"/>
<path d="M2820 683 c0 -7 -8 -13 -18 -13 -13 0 -18 -7 -17 -22 1 -18 7 -22 26
-20 32 5 38 12 11 12 -12 0 -22 5 -22 11 0 6 7 9 15 6 19 -8 26 5 14 23 -6 10
-9 11 -9 3z"/>
<path d="M948 663 c27 -5 30 -23 3 -23 -15 0 -18 -5 -13 -22 5 -19 7 -20 10
-5 2 10 11 16 20 15 10 -2 16 3 14 11 -2 8 3 18 10 22 8 5 -2 8 -27 7 -23 0
-30 -3 -17 -5z"/>
<path d="M1178 663 c27 -5 30 -23 3 -23 -15 0 -18 -5 -13 -22 5 -19 7 -20 10
-5 2 10 11 16 20 15 10 -2 16 3 14 11 -2 8 3 18 10 22 8 5 -2 8 -27 7 -23 0
-30 -3 -17 -5z"/>
<path d="M1408 663 c27 -5 30 -23 3 -23 -15 0 -18 -5 -13 -22 5 -19 7 -20 10
-5 2 9 8 17 13 17 5 0 9 -8 10 -17 0 -15 2 -15 8 2 5 11 6 24 3 29 -2 4 2 12
9 17 9 6 0 8 -26 7 -23 0 -30 -3 -17 -5z"/>
<path d="M1488 663 c27 -5 30 -23 3 -23 -15 0 -18 -5 -13 -22 5 -19 7 -20 10
-5 2 10 11 16 20 15 10 -2 16 3 14 11 -2 8 3 18 10 22 8 5 -2 8 -27 7 -23 0
-30 -3 -17 -5z"/>
<path d="M1638 663 c27 -5 30 -23 3 -23 -15 0 -18 -5 -13 -22 5 -19 7 -20 10
-5 2 9 8 17 13 17 5 0 9 -8 10 -17 0 -15 2 -15 8 2 5 11 6 24 3 29 -2 4 2 12
9 17 9 6 0 8 -26 7 -23 0 -30 -3 -17 -5z"/>
<path d="M1718 663 c27 -5 30 -23 3 -23 -15 0 -18 -5 -13 -22 5 -19 7 -20 10
-5 2 10 11 16 20 15 10 -2 16 3 14 11 -2 8 3 18 10 22 8 5 -2 8 -27 7 -23 0
-30 -3 -17 -5z"/>
<path d="M1948 663 c27 -5 30 -23 3 -23 -15 0 -18 -5 -13 -22 5 -19 7 -20 10
-5 2 9 8 17 13 17 5 0 9 -8 10 -17 0 -15 2 -15 8 2 5 11 6 24 3 29 -2 4 2 12
9 17 9 6 0 8 -26 7 -23 0 -30 -3 -17 -5z"/>
<path d="M2178 663 c27 -5 30 -23 3 -23 -15 0 -18 -5 -13 -22 5 -19 7 -20 10
-5 2 9 8 17 13 17 5 0 9 -8 10 -17 0 -15 2 -15 8 2 5 11 6 24 3 29 -2 4 2 12
9 17 9 6 0 8 -26 7 -23 0 -30 -3 -17 -5z"/>
<path d="M2408 663 c27 -5 30 -23 3 -23 -15 0 -18 -5 -13 -22 5 -19 7 -20 10
-5 2 9 8 17 13 17 5 0 9 -8 10 -17 0 -15 2 -15 8 2 5 11 6 24 3 29 -2 4 2 12
9 17 9 6 0 8 -26 7 -23 0 -30 -3 -17 -5z"/>
<path d="M2718 663 c27 -5 30 -23 3 -23 -15 0 -18 -5 -13 -22 5 -19 7 -20 10
-5 2 9 8 17 13 17 5 0 9 -8 10 -17 0 -15 2 -15 8 2 5 11 6 24 3 29 -2 4 2 12
9 17 9 6 0 8 -26 7 -23 0 -30 -3 -17 -5z"/>
<path d="M1280 483 c0 -7 -8 -13 -18 -13 -13 0 -18 -7 -17 -22 1 -18 7 -22 26
-20 32 5 38 12 11 12 -12 0 -22 5 -22 11 0 6 7 9 15 6 19 -8 26 5 14 23 -6 10
-9 11 -9 3z"/>
<path d="M1329 480 c-1 -8 -1 -19 0 -24 1 -5 -4 -13 -11 -17 -9 -6 -6 -9 10
-9 14 0 22 -6 23 -17 0 -14 2 -15 6 -3 3 8 11 18 17 22 6 5 1 8 -11 8 -13 0
-23 5 -23 10 0 6 9 10 20 10 14 0 18 5 13 16 -5 13 -7 13 -14 2 -7 -11 -11
-10 -19 2 -9 13 -10 13 -11 0z"/>
<path d="M1559 480 c-1 -8 -1 -19 0 -24 1 -5 -4 -13 -11 -17 -9 -6 -6 -9 10
-9 14 0 22 -6 23 -17 0 -14 2 -15 6 -3 3 8 11 18 17 22 6 5 1 8 -11 8 -13 0
-23 5 -23 10 0 6 9 10 20 10 14 0 18 5 13 16 -5 13 -7 13 -14 2 -7 -11 -11
-10 -19 2 -9 13 -10 13 -11 0z"/>
<path d="M1820 483 c0 -7 -8 -13 -18 -13 -13 0 -18 -7 -17 -22 1 -18 7 -22 26
-20 32 5 38 12 11 12 -12 0 -22 5 -22 11 0 6 7 9 15 6 19 -8 26 5 14 23 -6 10
-9 11 -9 3z"/>
<path d="M1869 480 c-1 -8 -1 -19 0 -24 1 -5 -4 -13 -11 -17 -9 -6 -7 -9 9 -9
12 0 24 -8 26 -17 4 -17 5 -17 6 0 0 9 7 17 14 17 8 0 7 3 -3 9 -8 6 -18 7
-22 5 -4 -3 -8 0 -8 5 0 6 9 11 20 11 14 0 18 5 13 16 -5 13 -7 13 -14 2 -7
-11 -11 -10 -19 2 -9 13 -10 13 -11 0z"/>
<path d="M2050 483 c0 -7 -9 -13 -20 -13 -13 0 -18 -5 -14 -15 4 -9 0 -15 -7
-15 -11 0 -11 -2 1 -9 8 -6 18 -7 22 -5 4 3 8 -3 9 -13 0 -14 2 -15 6 -3 3 8
11 18 17 22 6 5 1 8 -11 8 -13 0 -23 5 -23 11 0 6 7 9 15 6 19 -8 26 5 14 23
-6 10 -9 11 -9 3z"/>
<path d="M2099 480 c-1 -8 -1 -19 0 -24 1 -5 -4 -13 -11 -17 -9 -6 -7 -9 9 -9
12 0 24 -8 26 -17 4 -17 5 -17 6 0 0 9 7 17 14 17 8 0 7 3 -3 9 -8 6 -18 7
-22 5 -4 -3 -8 0 -8 5 0 6 9 11 20 11 14 0 18 5 13 16 -5 13 -7 13 -14 2 -7
-11 -11 -10 -19 2 -9 13 -10 13 -11 0z"/>
<path d="M2280 480 c0 -5 -8 -10 -19 -10 -15 0 -18 -6 -15 -32 4 -34 14 -52
14 -24 0 11 7 16 18 14 10 -2 16 2 14 11 -2 8 1 17 6 20 6 3 4 12 -4 19 -8 7
-14 8 -14 2z m0 -30 c0 -5 -4 -10 -10 -10 -5 0 -10 5 -10 10 0 6 5 10 10 10 6
0 10 -4 10 -10z"/>
<path d="M2360 483 c0 -7 -9 -13 -20 -13 -13 0 -18 -5 -14 -15 4 -9 0 -15 -7
-15 -11 0 -11 -2 1 -9 8 -6 18 -7 22 -5 4 3 8 -3 9 -13 0 -14 2 -15 6 -3 3 8
11 18 17 22 6 5 1 8 -11 8 -13 0 -23 5 -23 11 0 6 7 9 15 6 19 -8 26 5 14 23
-6 10 -9 11 -9 3z"/>
<path d="M1408 463 c27 -5 30 -23 3 -23 -15 0 -18 -5 -13 -22 5 -19 7 -20 10
-5 2 9 8 17 13 17 5 0 9 -8 10 -17 0 -15 2 -15 8 2 5 11 6 24 3 29 -2 4 2 12
9 17 9 6 0 8 -26 7 -23 0 -30 -3 -17 -5z"/>
<path d="M1488 463 c27 -5 30 -23 3 -23 -15 0 -18 -5 -13 -22 5 -19 7 -20 10
-5 2 10 11 16 20 15 10 -2 16 3 14 11 -2 8 3 18 10 22 8 5 -2 8 -27 7 -23 0
-30 -3 -17 -5z"/>
<path d="M1638 463 c27 -5 30 -23 3 -23 -15 0 -18 -5 -13 -22 5 -19 7 -20 10
-5 2 9 8 17 13 17 5 0 9 -8 10 -17 0 -15 2 -15 8 2 5 11 6 24 3 29 -2 4 2 12
9 17 9 6 0 8 -26 7 -23 0 -30 -3 -17 -5z"/>
<path d="M1718 463 c27 -5 30 -23 3 -23 -15 0 -18 -5 -13 -22 5 -19 7 -20 10
-5 2 10 11 16 20 15 10 -2 16 3 14 11 -2 8 3 18 10 22 8 5 -2 8 -27 7 -23 0
-30 -3 -17 -5z"/>
<path d="M1948 463 c27 -5 30 -23 3 -23 -15 0 -18 -5 -13 -22 5 -19 7 -20 10
-5 2 9 8 17 13 17 5 0 9 -8 10 -17 0 -15 2 -15 8 2 5 11 6 24 3 29 -2 4 2 12
9 17 9 6 0 8 -26 7 -23 0 -30 -3 -17 -5z"/>
<path d="M2178 463 c27 -5 30 -23 3 -23 -15 0 -18 -5 -13 -22 5 -19 7 -20 10
-5 2 9 8 17 13 17 5 0 9 -8 10 -17 0 -15 2 -15 8 2 5 11 6 24 3 29 -2 4 2 12
9 17 9 6 0 8 -26 7 -23 0 -30 -3 -17 -5z"/>
<path d="M2408 463 c27 -5 30 -23 3 -23 -15 0 -18 -5 -13 -22 5 -19 7 -20 10
-5 2 9 8 17 13 17 5 0 9 -8 10 -17 0 -15 2 -15 8 2 5 11 6 24 3 29 -2 4 2 12
9 17 9 6 0 8 -26 7 -23 0 -30 -3 -17 -5z"/>
<path d="M1820 293 c0 -7 -8 -13 -18 -13 -13 0 -18 -7 -17 -22 1 -18 7 -22 26
-20 32 5 38 12 11 12 -12 0 -22 5 -22 11 0 6 7 9 15 6 19 -8 26 5 14 23 -6 10
-9 11 -9 3z"/>
<path d="M1869 290 c-1 -8 -1 -19 0 -24 1 -5 -4 -13 -11 -17 -9 -6 -7 -9 9 -9
12 0 24 -8 26 -17 4 -17 5 -17 6 0 0 9 7 17 14 17 8 0 7 3 -3 9 -8 6 -18 7
-22 5 -4 -3 -8 0 -8 5 0 6 9 11 20 11 14 0 18 5 13 16 -5 13 -7 13 -14 2 -7
-11 -11 -10 -19 2 -9 13 -10 13 -11 0z"/>
<path d="M2050 293 c0 -7 -9 -13 -20 -13 -13 0 -18 -5 -14 -15 4 -9 0 -15 -7
-15 -11 0 -11 -2 1 -9 8 -6 18 -7 22 -5 4 3 8 -3 9 -13 0 -14 2 -15 6 -3 3 8
11 18 17 22 6 5 1 8 -11 8 -13 0 -23 5 -23 11 0 6 7 9 15 6 19 -8 26 5 14 23
-6 10 -9 11 -9 3z"/>
<path d="M2099 290 c-1 -8 -1 -19 0 -24 1 -5 -4 -13 -11 -17 -9 -6 -6 -9 10
-9 14 0 22 -6 23 -17 0 -14 2 -15 6 -3 3 8 11 18 17 22 6 5 1 8 -11 8 -13 0
-23 5 -23 10 0 6 9 10 20 10 14 0 18 5 13 16 -5 13 -7 13 -14 2 -7 -11 -11
-10 -19 2 -9 13 -10 13 -11 0z"/>
<path d="M1638 273 c27 -5 30 -23 3 -23 -15 0 -18 -5 -13 -22 5 -19 7 -20 10
-5 2 9 8 17 13 17 5 0 9 -8 10 -17 0 -15 2 -15 8 2 5 11 6 24 3 29 -2 4 2 12
9 17 9 6 0 8 -26 7 -23 0 -30 -3 -17 -5z"/>
<path d="M1718 273 c27 -5 30 -23 3 -23 -15 0 -18 -5 -13 -22 5 -19 7 -20 10
-5 2 10 11 16 20 15 10 -2 16 3 14 11 -2 8 3 18 10 22 8 5 -2 8 -27 7 -23 0
-30 -3 -17 -5z"/>
<path d="M1948 273 c27 -5 30 -23 3 -23 -15 0 -18 -5 -13 -22 5 -19 7 -20 10
-5 2 9 8 17 13 17 5 0 9 -8 10 -17 0 -15 2 -15 8 2 5 11 6 24 3 29 -2 4 2 12
9 17 9 6 0 8 -26 7 -23 0 -30 -3 -17 -5z"/>
</g>
</svg>
